M48
; DRILL file {KiCad 9.0.2} date 2025-12-22T22:42:02+0530
; FORMAT={-:-/ absolute / metric / decimal}
; #@! TF.CreationDate,2025-12-22T22:42:02+05:30
; #@! TF.GenerationSoftware,Kicad,Pcbnew,9.0.2
; #@! TF.FileFunction,Plated,1,2,PTH
FMAT,2
METRIC
; #@! TA.AperFunction,Plated,PTH,ViaDrill
T1C0.300
; #@! TA.AperFunction,Plated,PTH,ViaDrill
T2C0.400
; #@! TA.AperFunction,Plated,PTH,ComponentDrill
T3C0.800
; #@! TA.AperFunction,Plated,PTH,ComponentDrill
T4C1.000
; #@! TA.AperFunction,Plated,PTH,ComponentDrill
T5C1.016
; #@! TA.AperFunction,Plated,PTH,ComponentDrill
T6C1.020
%
G90
G05
T1
X47.37Y-108.02
X47.52Y-56.06
X47.62Y-103.07
X47.62Y-113.79
X47.69Y-60.77
X47.85Y-47.37
X48.25Y-38.84
X48.52Y-146.02
X48.84Y-136.44
X49.09Y-155.04
X49.57Y-67.86
X49.95Y-123.7
X49.95Y-128.7
X50.05Y-85.81
X50.62Y-73.14
X50.7Y-80.2
X54.12Y-92.47
X54.18Y-36.56
X57.85Y-52.8
X57.85Y-57.8
X57.85Y-122.8
X57.85Y-127.8
X57.85Y-132.8
X57.85Y-137.8
X57.85Y-142.8
X58.42Y-158.23
X62.07Y-88.24
X62.32Y-80.77
X62.4Y-93.45
X62.4Y-114.1
X62.56Y-73.22
X62.82Y-136.31
X62.86Y-105.08
X63.02Y-139.73
X64.58Y-46.63
X65.72Y-36.24
X66.63Y-135.46
X68.291Y-83.811
X68.8Y-77.4
X68.81Y-98.97
X68.83Y-141.89
X68.9Y-113.66
X70.44Y-95.32
X71.34Y-139.87
X71.92Y-32.93
X71.94Y-137.1
X72.35Y-55.5
X73.37Y-105.3
X74.05Y-135.3
X74.81Y-30.36
X75.1Y-139.75
X75.25Y-46.8
X75.45Y-120.5
X75.51Y-68.51
X76.93Y-37.34
X77.45Y-141.0
X77.65Y-43.3
X77.85Y-47.0
X78.33Y-157.99
X78.75Y-67.0
X78.98Y-151.25
X79.0Y-58.24
X80.05Y-144.0
X80.25Y-46.8
X80.68Y-57.52
X80.85Y-43.7
X81.38Y-98.58
X81.45Y-134.7
X81.55Y-83.0
X81.55Y-94.9
X82.19Y-35.88
X82.35Y-55.5
X82.35Y-111.6
X83.75Y-67.0
X83.87Y-30.18
X84.74Y-80.44
X85.25Y-46.8
X85.45Y-120.5
X85.5Y-111.08
X85.82Y-39.92
X86.45Y-134.7
X87.25Y-55.8
X87.97Y-44.28
X88.5Y-79.51
X88.55Y-60.5
X88.75Y-67.0
X90.05Y-144.0
X90.09Y-140.33
X90.25Y-46.8
X90.45Y-120.5
X90.48Y-131.36
X91.06Y-127.82
X91.09Y-30.22
X91.45Y-134.7
X92.14Y-117.57
X92.35Y-55.5
X92.41Y-119.52
X93.42Y-60.29
X93.75Y-67.0
X94.45Y-49.6
X94.59Y-35.18
X94.59Y-105.46
X95.05Y-144.0
X95.25Y-46.8
X95.35Y-74.63
X95.45Y-120.5
X95.49Y-30.54
X96.45Y-134.7
X96.51Y-130.78
X96.51Y-149.37
X96.52Y-60.18
X96.79Y-39.25
X97.35Y-55.5
X98.75Y-67.0
X98.8Y-38.8
X100.2Y-158.26
X100.25Y-46.8
X100.4Y-42.76
X100.45Y-120.5
X100.55Y-144.0
X101.45Y-134.7
X101.55Y-83.0
X101.55Y-94.9
X101.75Y-108.6
X101.85Y-128.29
X102.05Y-105.3
X102.35Y-55.5
X102.35Y-111.6
X102.4Y-41.78
X102.8Y-39.55
X103.05Y-45.6
X103.08Y-60.37
X104.45Y-67.0
X104.8Y-45.6
X104.85Y-57.3
X105.45Y-120.5
X106.15Y-40.15
X106.15Y-45.95
X106.55Y-83.0
X106.55Y-94.9
X106.7Y-60.35
X106.95Y-128.19
X107.05Y-57.1
X107.05Y-105.3
X107.35Y-55.5
X107.35Y-111.6
X107.63Y-140.75
X108.15Y-59.9
X108.2Y-40.25
X108.75Y-137.6
X108.95Y-30.4
X110.45Y-120.5
X110.6Y-55.8
X110.91Y-128.25
X111.55Y-83.0
X111.65Y-140.8
X111.96Y-136.88
X112.35Y-111.6
X113.65Y-55.95
X114.5Y-45.45
X114.51Y-128.42
X115.07Y-140.67
X115.09Y-30.54
X115.23Y-35.83
X115.45Y-120.5
X116.17Y-67.23
X116.79Y-74.87
X117.25Y-56.2
X117.35Y-111.6
X117.45Y-140.89
X117.75Y-137.2
X118.01Y-157.09
X119.21Y-44.21
X119.53Y-48.99
X120.48Y-47.42
X121.55Y-94.9
X121.67Y-136.2
X121.74Y-48.92
X121.85Y-141.9
X122.05Y-105.3
X122.06Y-74.9
X122.35Y-55.5
X122.35Y-111.6
X122.56Y-30.44
X123.01Y-44.17
X123.55Y-130.6
X123.75Y-67.0
X125.05Y-144.0
X125.35Y-108.4
X125.79Y-39.24
X126.53Y-100.27
X126.55Y-94.9
X127.05Y-105.3
X127.35Y-55.5
X127.35Y-111.6
X128.58Y-137.09
X128.75Y-67.0
X128.94Y-131.26
X129.31Y-77.05
X131.55Y-83.0
X132.35Y-55.5
X133.75Y-67.0
X134.97Y-41.06
X135.05Y-134.705
X135.05Y-144.0
X135.32Y-47.88
X135.42Y-42.6
X135.43Y-89.69
X135.75Y-33.13
X135.93Y-100.09
X136.05Y-148.98
X136.55Y-83.0
X137.21Y-30.63
X137.35Y-37.81
X137.38Y-76.65
X137.5Y-38.97
X137.59Y-158.25
X137.86Y-35.68
X138.22Y-83.0
X138.75Y-67.0
X139.05Y-41.24
X139.11Y-156.36
X139.46Y-47.4
X139.61Y-129.78
X140.05Y-144.0
X140.45Y-45.85
X140.71Y-75.05
X140.74Y-132.6
X140.79Y-78.73
X140.98Y-48.03
X142.0Y-39.01
X142.12Y-129.69
X142.37Y-136.47
X142.56Y-47.5
X142.57Y-42.58
X142.72Y-40.52
X142.75Y-44.73
X143.11Y-111.43
X143.75Y-67.0
X143.77Y-55.37
X144.25Y-47.7
X144.97Y-121.84
X145.05Y-144.0
X145.69Y-42.41
X146.03Y-38.99
X146.31Y-82.24
X146.55Y-94.9
X146.82Y-40.76
X146.94Y-75.14
X146.97Y-76.82
X147.05Y-105.3
X147.2Y-60.95
X147.35Y-55.5
X147.65Y-80.19
X147.86Y-120.89
X149.21Y-130.44
X149.33Y-42.67
X150.07Y-137.34
X150.45Y-120.5
X150.46Y-129.71
X150.57Y-30.7
X152.02Y-140.05
X152.32Y-76.07
X152.39Y-121.95
X152.71Y-148.93
X152.76Y-42.14
X153.0Y-54.3
X153.56Y-129.87
X153.75Y-67.0
X154.96Y-38.83
X155.45Y-120.5
X157.13Y-34.28
X157.32Y-76.07
X157.35Y-111.6
X157.41Y-30.59
X157.66Y-66.88
X157.72Y-82.84
X157.8Y-141.31
X157.92Y-86.34
X158.97Y-129.81
X159.32Y-157.27
X159.63Y-73.28
X160.1Y-44.96
X160.62Y-69.11
X160.66Y-56.8
X160.91Y-66.96
X161.22Y-87.16
X161.93Y-145.31
X162.35Y-111.6
X162.45Y-108.87
X162.53Y-135.38
X162.72Y-82.84
X163.48Y-76.05
X164.02Y-56.67
X164.56Y-45.09
X164.63Y-73.28
X164.72Y-47.78
X165.05Y-144.0
X165.61Y-38.68
X166.45Y-134.7
X167.08Y-133.86
X167.35Y-111.6
X167.42Y-56.79
X167.67Y-69.34
X167.74Y-67.07
X169.14Y-38.78
X169.34Y-130.33
X169.87Y-133.13
X170.05Y-144.0
X170.45Y-120.5
X171.11Y-30.56
X171.55Y-83.0
X171.55Y-94.9
X172.03Y-131.22
X172.35Y-111.6
X172.506Y-58.124
X172.72Y-75.95
X172.89Y-73.39
X172.93Y-38.16
X173.29Y-68.56
X173.75Y-67.0
X175.05Y-144.0
X175.35Y-49.56
X175.67Y-42.84
X176.55Y-83.0
X176.55Y-94.9
X176.85Y-30.67
X177.07Y-73.34
X177.13Y-132.77
X177.35Y-111.6
X177.72Y-75.95
X178.6Y-42.74
X178.79Y-38.59
X178.89Y-155.3
X179.11Y-151.19
X179.91Y-68.2
X180.19Y-62.75
X180.57Y-128.41
X181.12Y-56.02
X181.17Y-157.67
X182.39Y-116.41
X183.29Y-109.05
X184.18Y-42.31
X188.43Y-31.87
X189.16Y-56.99
X189.22Y-39.06
X191.25Y-96.9
X191.25Y-136.9
X191.39Y-59.33
X192.57Y-40.78
X192.86Y-158.21
X193.48Y-44.4
X194.53Y-32.05
X194.69Y-113.28
X194.69Y-121.05
X195.4Y-106.12
X196.72Y-138.71
X197.24Y-37.04
X197.33Y-65.3
X197.38Y-57.07
X197.42Y-43.39
X198.64Y-54.26
X199.18Y-159.3
X200.88Y-125.89
X201.3Y-103.32
X201.38Y-75.29
X201.74Y-150.9
X202.18Y-156.37
X202.5Y-93.0
X202.61Y-140.99
X202.69Y-90.71
X205.69Y-49.35
X206.19Y-39.87
X206.2Y-90.78
X206.9Y-120.85
X207.31Y-63.04
X207.31Y-103.68
X207.5Y-77.32
X207.94Y-68.17
X208.87Y-105.03
X209.3Y-115.54
X209.34Y-111.0
X209.77Y-149.81
X211.58Y-142.41
X211.6Y-137.04
X211.9Y-147.03
T2
X94.99Y-42.97
X105.32Y-38.0
X139.73Y-51.13
X139.79Y-138.6
X142.48Y-138.59
X148.32Y-51.13
X173.33Y-49.51
X173.49Y-45.62
X176.3Y-36.19
X195.54Y-73.27
X197.73Y-77.76
X198.84Y-113.33
T3
X42.65Y-111.7
X42.65Y-113.7
X49.2Y-88.77
X49.2Y-90.77
X83.66Y-141.36
X85.66Y-141.36
X100.05Y-51.45
X102.05Y-51.45
X108.35Y-50.5
X110.35Y-50.5
X191.97Y-90.26
X191.97Y-92.26
T4
X62.637Y-153.725
X65.138Y-153.725
X67.638Y-153.725
X70.138Y-153.725
X72.638Y-153.725
X75.138Y-153.725
X78.45Y-34.2
X80.95Y-34.2
X83.2Y-153.725
X83.45Y-34.2
X85.7Y-153.725
X85.95Y-34.2
X88.2Y-153.725
X88.45Y-34.2
X90.7Y-153.725
X90.95Y-34.2
X93.2Y-153.725
X95.7Y-153.725
X99.25Y-34.6
X101.75Y-34.6
X103.55Y-153.7
X104.25Y-34.6
X106.05Y-153.7
X106.75Y-34.6
X108.55Y-153.7
X109.25Y-34.6
X111.05Y-153.7
X111.75Y-34.6
X113.55Y-153.7
X116.05Y-153.7
X119.938Y-34.675
X122.438Y-34.675
X122.75Y-153.8
X124.938Y-34.675
X125.25Y-153.8
X127.438Y-34.675
X127.75Y-153.8
X129.938Y-34.675
X130.25Y-153.8
X132.438Y-34.675
X132.75Y-153.8
X135.25Y-153.8
X140.85Y-34.85
X142.7Y-153.825
X143.35Y-34.85
X145.2Y-153.825
X145.85Y-34.85
X147.7Y-153.825
X148.35Y-34.85
X150.2Y-153.825
X150.85Y-34.85
X152.7Y-153.825
X153.35Y-34.85
X155.2Y-153.825
X160.37Y-34.86
X162.65Y-154.1
X162.87Y-34.86
X165.15Y-154.1
X165.37Y-34.86
X167.65Y-154.1
X167.87Y-34.86
X170.15Y-154.1
X170.37Y-34.86
X172.65Y-154.1
X172.87Y-34.86
X175.15Y-154.1
X180.45Y-34.575
X182.95Y-34.575
X185.45Y-34.575
X187.95Y-34.575
X190.45Y-34.575
X192.95Y-34.575
X202.93Y-59.58
X202.93Y-62.08
X202.93Y-64.58
X202.93Y-67.08
X202.93Y-69.58
X202.93Y-72.08
X205.65Y-124.18
X205.65Y-126.68
X205.65Y-129.18
X205.65Y-131.68
X205.65Y-134.18
X205.65Y-136.68
X205.795Y-104.55
X205.795Y-107.05
X205.795Y-109.55
X205.795Y-112.05
X205.795Y-114.55
X205.795Y-117.05
T5
X62.67Y-133.81
X62.67Y-143.97
X65.21Y-133.81
X65.21Y-143.97
X67.75Y-133.81
X67.75Y-143.97
X70.29Y-133.81
X70.29Y-143.97
X72.83Y-133.81
X72.83Y-143.97
X75.37Y-133.81
X75.37Y-143.97
X79.536Y-41.758
X79.536Y-51.917
X82.076Y-41.758
X82.076Y-51.917
X84.617Y-41.758
X84.617Y-51.917
X87.156Y-41.758
X87.156Y-51.917
X89.697Y-41.758
X89.697Y-51.917
X92.236Y-41.758
X92.236Y-51.917
X107.364Y-134.183
X107.364Y-144.343
X109.903Y-134.183
X109.903Y-144.343
X112.444Y-134.183
X112.444Y-144.343
X114.983Y-134.183
X114.983Y-144.343
X117.523Y-134.183
X117.523Y-144.343
X119.82Y-42.19
X119.82Y-52.35
X120.063Y-134.183
X120.063Y-144.343
X122.36Y-42.19
X122.36Y-52.35
X124.9Y-42.19
X124.9Y-52.35
X127.44Y-42.19
X127.44Y-52.35
X129.98Y-42.19
X129.98Y-52.35
X132.52Y-42.19
X132.52Y-52.35
X147.55Y-135.13
X147.55Y-145.29
X150.09Y-135.13
X150.09Y-145.29
X152.63Y-135.13
X152.63Y-145.29
X155.17Y-135.13
X155.17Y-145.29
X157.71Y-135.13
X157.71Y-145.29
X158.897Y-42.63
X158.897Y-52.79
X160.25Y-135.13
X160.25Y-145.29
X161.436Y-42.63
X161.436Y-52.79
X163.976Y-42.63
X163.976Y-52.79
X166.516Y-42.63
X166.516Y-52.79
X169.056Y-42.63
X169.056Y-52.79
X171.596Y-42.63
X171.596Y-52.79
X197.93Y-82.846
X197.93Y-85.386
X197.93Y-87.926
X197.93Y-90.466
X197.93Y-93.007
X197.93Y-95.546
X208.09Y-82.846
X208.09Y-85.386
X208.09Y-87.926
X208.09Y-90.466
X208.09Y-93.007
X208.09Y-95.546
T6
X85.05Y-123.44
X85.05Y-125.98
X85.07Y-62.48
X85.07Y-65.02
X86.066Y-70.1
X86.066Y-72.64
X87.59Y-123.44
X87.59Y-125.98
X87.61Y-62.48
X87.61Y-65.02
X88.606Y-70.1
X88.606Y-72.64
X90.13Y-123.44
X90.13Y-125.98
X90.15Y-62.48
X90.15Y-65.02
X91.146Y-70.1
X91.146Y-72.64
X92.67Y-123.44
X92.67Y-125.98
X92.69Y-62.48
X92.69Y-65.02
X93.686Y-70.1
X93.686Y-72.64
X95.21Y-115.82
X95.21Y-118.36
X95.21Y-123.44
X95.21Y-125.98
X95.23Y-62.48
X95.23Y-65.02
X96.226Y-70.1
X96.226Y-72.64
X97.75Y-115.82
X97.75Y-118.36
X97.75Y-123.44
X97.75Y-125.98
X97.77Y-62.48
X97.77Y-65.02
X98.766Y-70.1
X98.766Y-72.64
X100.29Y-115.82
X100.29Y-118.36
X100.29Y-123.44
X100.29Y-125.98
X100.31Y-62.48
X100.31Y-65.02
X101.306Y-70.1
X101.306Y-72.64
X102.83Y-115.82
X102.83Y-118.36
X102.83Y-123.44
X102.83Y-125.98
X102.85Y-62.48
X102.85Y-65.02
X103.846Y-70.1
X103.846Y-72.64
X105.37Y-115.82
X105.37Y-118.36
X105.37Y-123.44
X105.37Y-125.98
X105.39Y-62.48
X105.39Y-65.02
X106.386Y-70.1
X106.386Y-72.64
X107.91Y-115.82
X107.91Y-118.36
X107.91Y-123.44
X107.91Y-125.98
X107.93Y-62.48
X107.93Y-65.02
X108.926Y-70.1
X108.926Y-72.64
X110.45Y-115.82
X110.45Y-118.36
X110.45Y-123.44
X110.45Y-125.98
X110.47Y-62.48
X110.47Y-65.02
X112.99Y-70.1
X112.99Y-72.64
X112.99Y-115.82
X112.99Y-118.36
X112.99Y-123.44
X112.99Y-125.98
X113.01Y-62.48
X113.01Y-65.02
X115.53Y-70.1
X115.53Y-72.64
X115.53Y-123.44
X115.53Y-125.98
X115.55Y-62.48
X115.55Y-65.02
X118.07Y-70.1
X118.07Y-72.64
X118.07Y-115.82
X118.07Y-118.36
X118.07Y-123.44
X118.07Y-125.98
X118.09Y-62.48
X118.09Y-65.02
X120.61Y-70.1
X120.61Y-72.64
X120.61Y-115.82
X120.61Y-118.36
X120.61Y-123.44
X120.61Y-125.98
X120.63Y-62.48
X120.63Y-65.02
X123.15Y-70.1
X123.15Y-72.64
X123.15Y-115.82
X123.15Y-118.36
X123.15Y-123.44
X123.15Y-125.98
X123.17Y-62.48
X123.17Y-65.02
X125.69Y-70.1
X125.69Y-72.64
X125.69Y-115.82
X125.69Y-118.36
X125.69Y-123.44
X125.69Y-125.98
X125.71Y-62.48
X125.71Y-65.02
X128.23Y-70.1
X128.23Y-72.64
X128.23Y-115.82
X128.23Y-118.36
X128.23Y-123.44
X128.23Y-125.98
X128.25Y-62.48
X128.25Y-65.02
X130.77Y-70.1
X130.77Y-72.64
X130.77Y-115.82
X130.77Y-118.36
X130.77Y-123.44
X130.77Y-125.98
X130.79Y-62.48
X130.79Y-65.02
X133.31Y-70.1
X133.31Y-72.64
X133.31Y-115.82
X133.31Y-118.36
X133.31Y-123.44
X133.31Y-125.98
X133.33Y-62.48
X133.33Y-65.02
X135.85Y-70.1
X135.85Y-72.64
X135.85Y-115.82
X135.85Y-118.36
X135.85Y-123.44
X135.85Y-125.98
X135.87Y-62.48
X135.87Y-65.02
X138.39Y-70.1
X138.39Y-72.64
X138.39Y-115.82
X138.39Y-118.36
X138.39Y-123.44
X138.39Y-125.98
X138.41Y-62.48
X138.41Y-65.02
X140.93Y-70.1
X140.93Y-72.64
X140.93Y-115.82
X140.93Y-118.36
X140.93Y-123.44
X140.93Y-125.98
X140.95Y-62.48
X140.95Y-65.02
X143.47Y-70.1
X143.47Y-72.64
X143.47Y-115.82
X143.47Y-118.36
X143.47Y-123.44
X143.47Y-125.98
X143.49Y-62.48
X143.49Y-65.02
X146.01Y-70.1
X146.01Y-72.64
X146.01Y-115.82
X146.01Y-118.36
X146.01Y-123.44
X146.01Y-125.98
X146.03Y-62.48
X146.03Y-65.02
X148.55Y-70.1
X148.55Y-72.64
X148.55Y-115.82
X148.55Y-118.36
X148.55Y-123.44
X148.55Y-125.98
X148.57Y-62.48
X148.57Y-65.02
X151.09Y-70.1
X151.09Y-72.64
X151.09Y-115.82
X151.09Y-118.36
X151.09Y-123.44
X151.09Y-125.98
X151.11Y-62.48
X151.11Y-65.02
X153.63Y-70.1
X153.63Y-72.64
X153.63Y-115.82
X153.63Y-118.36
X153.63Y-123.44
X153.63Y-125.98
X153.65Y-62.48
X153.65Y-65.02
X156.17Y-123.44
X156.17Y-125.98
X156.19Y-62.48
X156.19Y-65.02
X158.71Y-123.44
X158.71Y-125.98
X158.73Y-62.48
X158.73Y-65.02
X161.25Y-123.44
X161.25Y-125.98
X161.27Y-62.48
X161.27Y-65.02
X163.79Y-123.44
X163.79Y-125.98
X163.81Y-62.48
X163.81Y-65.02
X166.33Y-123.44
X166.33Y-125.98
X166.35Y-62.48
X166.35Y-65.02
X168.87Y-123.44
X168.87Y-125.98
X168.89Y-62.48
X168.89Y-65.02
X171.41Y-123.44
X171.41Y-125.98
X171.43Y-62.48
X171.43Y-65.02
X173.95Y-123.44
X173.95Y-125.98
X173.97Y-62.48
X173.97Y-65.02
M30
