%TF.GenerationSoftware,KiCad,Pcbnew,9.0.2*%
%TF.CreationDate,2025-12-22T22:41:59+05:30*%
%TF.ProjectId,its_a_wrap,6974735f-615f-4777-9261-702e6b696361,rev?*%
%TF.SameCoordinates,Original*%
%TF.FileFunction,Legend,Bot*%
%TF.FilePolarity,Positive*%
%FSLAX46Y46*%
G04 Gerber Fmt 4.6, Leading zero omitted, Abs format (unit mm)*
G04 Created by KiCad (PCBNEW 9.0.2) date 2025-12-22 22:41:59*
%MOMM*%
%LPD*%
G01*
G04 APERTURE LIST*
%ADD10C,0.100000*%
%ADD11C,0.150000*%
%ADD12C,0.300000*%
%ADD13C,0.400000*%
G04 APERTURE END LIST*
D10*
X188494687Y-30387180D02*
X188542306Y-30434800D01*
X188542306Y-30434800D02*
X188685163Y-30482419D01*
X188685163Y-30482419D02*
X188780401Y-30482419D01*
X188780401Y-30482419D02*
X188923258Y-30434800D01*
X188923258Y-30434800D02*
X189018496Y-30339561D01*
X189018496Y-30339561D02*
X189066115Y-30244323D01*
X189066115Y-30244323D02*
X189113734Y-30053847D01*
X189113734Y-30053847D02*
X189113734Y-29910990D01*
X189113734Y-29910990D02*
X189066115Y-29720514D01*
X189066115Y-29720514D02*
X189018496Y-29625276D01*
X189018496Y-29625276D02*
X188923258Y-29530038D01*
X188923258Y-29530038D02*
X188780401Y-29482419D01*
X188780401Y-29482419D02*
X188685163Y-29482419D01*
X188685163Y-29482419D02*
X188542306Y-29530038D01*
X188542306Y-29530038D02*
X188494687Y-29577657D01*
X187589925Y-30482419D02*
X188066115Y-30482419D01*
X188066115Y-30482419D02*
X188066115Y-29482419D01*
X187304210Y-30196704D02*
X186828020Y-30196704D01*
X187399448Y-30482419D02*
X187066115Y-29482419D01*
X187066115Y-29482419D02*
X186732782Y-30482419D01*
X186494686Y-29482419D02*
X186256591Y-30482419D01*
X186256591Y-30482419D02*
X186066115Y-29768133D01*
X186066115Y-29768133D02*
X185875639Y-30482419D01*
X185875639Y-30482419D02*
X185637544Y-29482419D01*
D11*
X94679887Y-157546009D02*
X94537030Y-157593628D01*
X94537030Y-157593628D02*
X94489411Y-157641247D01*
X94489411Y-157641247D02*
X94441792Y-157736485D01*
X94441792Y-157736485D02*
X94441792Y-157879342D01*
X94441792Y-157879342D02*
X94489411Y-157974580D01*
X94489411Y-157974580D02*
X94537030Y-158022200D01*
X94537030Y-158022200D02*
X94632268Y-158069819D01*
X94632268Y-158069819D02*
X95013220Y-158069819D01*
X95013220Y-158069819D02*
X95013220Y-157069819D01*
X95013220Y-157069819D02*
X94679887Y-157069819D01*
X94679887Y-157069819D02*
X94584649Y-157117438D01*
X94584649Y-157117438D02*
X94537030Y-157165057D01*
X94537030Y-157165057D02*
X94489411Y-157260295D01*
X94489411Y-157260295D02*
X94489411Y-157355533D01*
X94489411Y-157355533D02*
X94537030Y-157450771D01*
X94537030Y-157450771D02*
X94584649Y-157498390D01*
X94584649Y-157498390D02*
X94679887Y-157546009D01*
X94679887Y-157546009D02*
X95013220Y-157546009D01*
X94060839Y-157784104D02*
X93584649Y-157784104D01*
X94156077Y-158069819D02*
X93822744Y-157069819D01*
X93822744Y-157069819D02*
X93489411Y-158069819D01*
X93203696Y-158022200D02*
X93060839Y-158069819D01*
X93060839Y-158069819D02*
X92822744Y-158069819D01*
X92822744Y-158069819D02*
X92727506Y-158022200D01*
X92727506Y-158022200D02*
X92679887Y-157974580D01*
X92679887Y-157974580D02*
X92632268Y-157879342D01*
X92632268Y-157879342D02*
X92632268Y-157784104D01*
X92632268Y-157784104D02*
X92679887Y-157688866D01*
X92679887Y-157688866D02*
X92727506Y-157641247D01*
X92727506Y-157641247D02*
X92822744Y-157593628D01*
X92822744Y-157593628D02*
X93013220Y-157546009D01*
X93013220Y-157546009D02*
X93108458Y-157498390D01*
X93108458Y-157498390D02*
X93156077Y-157450771D01*
X93156077Y-157450771D02*
X93203696Y-157355533D01*
X93203696Y-157355533D02*
X93203696Y-157260295D01*
X93203696Y-157260295D02*
X93156077Y-157165057D01*
X93156077Y-157165057D02*
X93108458Y-157117438D01*
X93108458Y-157117438D02*
X93013220Y-157069819D01*
X93013220Y-157069819D02*
X92775125Y-157069819D01*
X92775125Y-157069819D02*
X92632268Y-157117438D01*
X92203696Y-157546009D02*
X91870363Y-157546009D01*
X91727506Y-158069819D02*
X92203696Y-158069819D01*
X92203696Y-158069819D02*
X92203696Y-157069819D01*
X92203696Y-157069819D02*
X91727506Y-157069819D01*
X90537029Y-158069819D02*
X90537029Y-157069819D01*
X90537029Y-157069819D02*
X90203696Y-157784104D01*
X90203696Y-157784104D02*
X89870363Y-157069819D01*
X89870363Y-157069819D02*
X89870363Y-158069819D01*
X89203696Y-157069819D02*
X89013220Y-157069819D01*
X89013220Y-157069819D02*
X88917982Y-157117438D01*
X88917982Y-157117438D02*
X88822744Y-157212676D01*
X88822744Y-157212676D02*
X88775125Y-157403152D01*
X88775125Y-157403152D02*
X88775125Y-157736485D01*
X88775125Y-157736485D02*
X88822744Y-157926961D01*
X88822744Y-157926961D02*
X88917982Y-158022200D01*
X88917982Y-158022200D02*
X89013220Y-158069819D01*
X89013220Y-158069819D02*
X89203696Y-158069819D01*
X89203696Y-158069819D02*
X89298934Y-158022200D01*
X89298934Y-158022200D02*
X89394172Y-157926961D01*
X89394172Y-157926961D02*
X89441791Y-157736485D01*
X89441791Y-157736485D02*
X89441791Y-157403152D01*
X89441791Y-157403152D02*
X89394172Y-157212676D01*
X89394172Y-157212676D02*
X89298934Y-157117438D01*
X89298934Y-157117438D02*
X89203696Y-157069819D01*
X88489410Y-157069819D02*
X87917982Y-157069819D01*
X88203696Y-158069819D02*
X88203696Y-157069819D01*
X87394172Y-157069819D02*
X87203696Y-157069819D01*
X87203696Y-157069819D02*
X87108458Y-157117438D01*
X87108458Y-157117438D02*
X87013220Y-157212676D01*
X87013220Y-157212676D02*
X86965601Y-157403152D01*
X86965601Y-157403152D02*
X86965601Y-157736485D01*
X86965601Y-157736485D02*
X87013220Y-157926961D01*
X87013220Y-157926961D02*
X87108458Y-158022200D01*
X87108458Y-158022200D02*
X87203696Y-158069819D01*
X87203696Y-158069819D02*
X87394172Y-158069819D01*
X87394172Y-158069819D02*
X87489410Y-158022200D01*
X87489410Y-158022200D02*
X87584648Y-157926961D01*
X87584648Y-157926961D02*
X87632267Y-157736485D01*
X87632267Y-157736485D02*
X87632267Y-157403152D01*
X87632267Y-157403152D02*
X87584648Y-157212676D01*
X87584648Y-157212676D02*
X87489410Y-157117438D01*
X87489410Y-157117438D02*
X87394172Y-157069819D01*
X85965601Y-158069819D02*
X86298934Y-157593628D01*
X86537029Y-158069819D02*
X86537029Y-157069819D01*
X86537029Y-157069819D02*
X86156077Y-157069819D01*
X86156077Y-157069819D02*
X86060839Y-157117438D01*
X86060839Y-157117438D02*
X86013220Y-157165057D01*
X86013220Y-157165057D02*
X85965601Y-157260295D01*
X85965601Y-157260295D02*
X85965601Y-157403152D01*
X85965601Y-157403152D02*
X86013220Y-157498390D01*
X86013220Y-157498390D02*
X86060839Y-157546009D01*
X86060839Y-157546009D02*
X86156077Y-157593628D01*
X86156077Y-157593628D02*
X86537029Y-157593628D01*
X84822743Y-157165057D02*
X84775124Y-157117438D01*
X84775124Y-157117438D02*
X84679886Y-157069819D01*
X84679886Y-157069819D02*
X84441791Y-157069819D01*
X84441791Y-157069819D02*
X84346553Y-157117438D01*
X84346553Y-157117438D02*
X84298934Y-157165057D01*
X84298934Y-157165057D02*
X84251315Y-157260295D01*
X84251315Y-157260295D02*
X84251315Y-157355533D01*
X84251315Y-157355533D02*
X84298934Y-157498390D01*
X84298934Y-157498390D02*
X84870362Y-158069819D01*
X84870362Y-158069819D02*
X84251315Y-158069819D01*
D10*
X134412782Y-157848609D02*
X134269925Y-157896228D01*
X134269925Y-157896228D02*
X134222306Y-157943847D01*
X134222306Y-157943847D02*
X134174687Y-158039085D01*
X134174687Y-158039085D02*
X134174687Y-158181942D01*
X134174687Y-158181942D02*
X134222306Y-158277180D01*
X134222306Y-158277180D02*
X134269925Y-158324800D01*
X134269925Y-158324800D02*
X134365163Y-158372419D01*
X134365163Y-158372419D02*
X134746115Y-158372419D01*
X134746115Y-158372419D02*
X134746115Y-157372419D01*
X134746115Y-157372419D02*
X134412782Y-157372419D01*
X134412782Y-157372419D02*
X134317544Y-157420038D01*
X134317544Y-157420038D02*
X134269925Y-157467657D01*
X134269925Y-157467657D02*
X134222306Y-157562895D01*
X134222306Y-157562895D02*
X134222306Y-157658133D01*
X134222306Y-157658133D02*
X134269925Y-157753371D01*
X134269925Y-157753371D02*
X134317544Y-157800990D01*
X134317544Y-157800990D02*
X134412782Y-157848609D01*
X134412782Y-157848609D02*
X134746115Y-157848609D01*
X133793734Y-158086704D02*
X133317544Y-158086704D01*
X133888972Y-158372419D02*
X133555639Y-157372419D01*
X133555639Y-157372419D02*
X133222306Y-158372419D01*
X132936591Y-158324800D02*
X132793734Y-158372419D01*
X132793734Y-158372419D02*
X132555639Y-158372419D01*
X132555639Y-158372419D02*
X132460401Y-158324800D01*
X132460401Y-158324800D02*
X132412782Y-158277180D01*
X132412782Y-158277180D02*
X132365163Y-158181942D01*
X132365163Y-158181942D02*
X132365163Y-158086704D01*
X132365163Y-158086704D02*
X132412782Y-157991466D01*
X132412782Y-157991466D02*
X132460401Y-157943847D01*
X132460401Y-157943847D02*
X132555639Y-157896228D01*
X132555639Y-157896228D02*
X132746115Y-157848609D01*
X132746115Y-157848609D02*
X132841353Y-157800990D01*
X132841353Y-157800990D02*
X132888972Y-157753371D01*
X132888972Y-157753371D02*
X132936591Y-157658133D01*
X132936591Y-157658133D02*
X132936591Y-157562895D01*
X132936591Y-157562895D02*
X132888972Y-157467657D01*
X132888972Y-157467657D02*
X132841353Y-157420038D01*
X132841353Y-157420038D02*
X132746115Y-157372419D01*
X132746115Y-157372419D02*
X132508020Y-157372419D01*
X132508020Y-157372419D02*
X132365163Y-157420038D01*
X131936591Y-157848609D02*
X131603258Y-157848609D01*
X131460401Y-158372419D02*
X131936591Y-158372419D01*
X131936591Y-158372419D02*
X131936591Y-157372419D01*
X131936591Y-157372419D02*
X131460401Y-157372419D01*
X130269924Y-158372419D02*
X130269924Y-157372419D01*
X130269924Y-157372419D02*
X129936591Y-158086704D01*
X129936591Y-158086704D02*
X129603258Y-157372419D01*
X129603258Y-157372419D02*
X129603258Y-158372419D01*
X128936591Y-157372419D02*
X128746115Y-157372419D01*
X128746115Y-157372419D02*
X128650877Y-157420038D01*
X128650877Y-157420038D02*
X128555639Y-157515276D01*
X128555639Y-157515276D02*
X128508020Y-157705752D01*
X128508020Y-157705752D02*
X128508020Y-158039085D01*
X128508020Y-158039085D02*
X128555639Y-158229561D01*
X128555639Y-158229561D02*
X128650877Y-158324800D01*
X128650877Y-158324800D02*
X128746115Y-158372419D01*
X128746115Y-158372419D02*
X128936591Y-158372419D01*
X128936591Y-158372419D02*
X129031829Y-158324800D01*
X129031829Y-158324800D02*
X129127067Y-158229561D01*
X129127067Y-158229561D02*
X129174686Y-158039085D01*
X129174686Y-158039085D02*
X129174686Y-157705752D01*
X129174686Y-157705752D02*
X129127067Y-157515276D01*
X129127067Y-157515276D02*
X129031829Y-157420038D01*
X129031829Y-157420038D02*
X128936591Y-157372419D01*
X128222305Y-157372419D02*
X127650877Y-157372419D01*
X127936591Y-158372419D02*
X127936591Y-157372419D01*
X127127067Y-157372419D02*
X126936591Y-157372419D01*
X126936591Y-157372419D02*
X126841353Y-157420038D01*
X126841353Y-157420038D02*
X126746115Y-157515276D01*
X126746115Y-157515276D02*
X126698496Y-157705752D01*
X126698496Y-157705752D02*
X126698496Y-158039085D01*
X126698496Y-158039085D02*
X126746115Y-158229561D01*
X126746115Y-158229561D02*
X126841353Y-158324800D01*
X126841353Y-158324800D02*
X126936591Y-158372419D01*
X126936591Y-158372419D02*
X127127067Y-158372419D01*
X127127067Y-158372419D02*
X127222305Y-158324800D01*
X127222305Y-158324800D02*
X127317543Y-158229561D01*
X127317543Y-158229561D02*
X127365162Y-158039085D01*
X127365162Y-158039085D02*
X127365162Y-157705752D01*
X127365162Y-157705752D02*
X127317543Y-157515276D01*
X127317543Y-157515276D02*
X127222305Y-157420038D01*
X127222305Y-157420038D02*
X127127067Y-157372419D01*
X125698496Y-158372419D02*
X126031829Y-157896228D01*
X126269924Y-158372419D02*
X126269924Y-157372419D01*
X126269924Y-157372419D02*
X125888972Y-157372419D01*
X125888972Y-157372419D02*
X125793734Y-157420038D01*
X125793734Y-157420038D02*
X125746115Y-157467657D01*
X125746115Y-157467657D02*
X125698496Y-157562895D01*
X125698496Y-157562895D02*
X125698496Y-157705752D01*
X125698496Y-157705752D02*
X125746115Y-157800990D01*
X125746115Y-157800990D02*
X125793734Y-157848609D01*
X125793734Y-157848609D02*
X125888972Y-157896228D01*
X125888972Y-157896228D02*
X126269924Y-157896228D01*
X124079448Y-157705752D02*
X124079448Y-158372419D01*
X124317543Y-157324800D02*
X124555638Y-158039085D01*
X124555638Y-158039085D02*
X123936591Y-158039085D01*
X209200038Y-128057693D02*
X209152419Y-127962455D01*
X209152419Y-127962455D02*
X209152419Y-127819598D01*
X209152419Y-127819598D02*
X209200038Y-127676741D01*
X209200038Y-127676741D02*
X209295276Y-127581503D01*
X209295276Y-127581503D02*
X209390514Y-127533884D01*
X209390514Y-127533884D02*
X209580990Y-127486265D01*
X209580990Y-127486265D02*
X209723847Y-127486265D01*
X209723847Y-127486265D02*
X209914323Y-127533884D01*
X209914323Y-127533884D02*
X210009561Y-127581503D01*
X210009561Y-127581503D02*
X210104800Y-127676741D01*
X210104800Y-127676741D02*
X210152419Y-127819598D01*
X210152419Y-127819598D02*
X210152419Y-127914836D01*
X210152419Y-127914836D02*
X210104800Y-128057693D01*
X210104800Y-128057693D02*
X210057180Y-128105312D01*
X210057180Y-128105312D02*
X209723847Y-128105312D01*
X209723847Y-128105312D02*
X209723847Y-127914836D01*
X210152419Y-128533884D02*
X209152419Y-128533884D01*
X209152419Y-128533884D02*
X209152419Y-128914836D01*
X209152419Y-128914836D02*
X209200038Y-129010074D01*
X209200038Y-129010074D02*
X209247657Y-129057693D01*
X209247657Y-129057693D02*
X209342895Y-129105312D01*
X209342895Y-129105312D02*
X209485752Y-129105312D01*
X209485752Y-129105312D02*
X209580990Y-129057693D01*
X209580990Y-129057693D02*
X209628609Y-129010074D01*
X209628609Y-129010074D02*
X209676228Y-128914836D01*
X209676228Y-128914836D02*
X209676228Y-128533884D01*
X210152419Y-129533884D02*
X209152419Y-129533884D01*
X209152419Y-130200550D02*
X209152419Y-130391026D01*
X209152419Y-130391026D02*
X209200038Y-130486264D01*
X209200038Y-130486264D02*
X209295276Y-130581502D01*
X209295276Y-130581502D02*
X209485752Y-130629121D01*
X209485752Y-130629121D02*
X209819085Y-130629121D01*
X209819085Y-130629121D02*
X210009561Y-130581502D01*
X210009561Y-130581502D02*
X210104800Y-130486264D01*
X210104800Y-130486264D02*
X210152419Y-130391026D01*
X210152419Y-130391026D02*
X210152419Y-130200550D01*
X210152419Y-130200550D02*
X210104800Y-130105312D01*
X210104800Y-130105312D02*
X210009561Y-130010074D01*
X210009561Y-130010074D02*
X209819085Y-129962455D01*
X209819085Y-129962455D02*
X209485752Y-129962455D01*
X209485752Y-129962455D02*
X209295276Y-130010074D01*
X209295276Y-130010074D02*
X209200038Y-130105312D01*
X209200038Y-130105312D02*
X209152419Y-130200550D01*
X74076704Y-31606265D02*
X74076704Y-32082455D01*
X74362419Y-31511027D02*
X73362419Y-31844360D01*
X73362419Y-31844360D02*
X74362419Y-32177693D01*
X74362419Y-33082455D02*
X73886228Y-32749122D01*
X74362419Y-32511027D02*
X73362419Y-32511027D01*
X73362419Y-32511027D02*
X73362419Y-32891979D01*
X73362419Y-32891979D02*
X73410038Y-32987217D01*
X73410038Y-32987217D02*
X73457657Y-33034836D01*
X73457657Y-33034836D02*
X73552895Y-33082455D01*
X73552895Y-33082455D02*
X73695752Y-33082455D01*
X73695752Y-33082455D02*
X73790990Y-33034836D01*
X73790990Y-33034836D02*
X73838609Y-32987217D01*
X73838609Y-32987217D02*
X73886228Y-32891979D01*
X73886228Y-32891979D02*
X73886228Y-32511027D01*
X74362419Y-33511027D02*
X73362419Y-33511027D01*
X73362419Y-33511027D02*
X74076704Y-33844360D01*
X74076704Y-33844360D02*
X73362419Y-34177693D01*
X73362419Y-34177693D02*
X74362419Y-34177693D01*
X74362419Y-35415789D02*
X73362419Y-35415789D01*
X73362419Y-35415789D02*
X74076704Y-35749122D01*
X74076704Y-35749122D02*
X73362419Y-36082455D01*
X73362419Y-36082455D02*
X74362419Y-36082455D01*
X74362419Y-37082455D02*
X74362419Y-36511027D01*
X74362419Y-36796741D02*
X73362419Y-36796741D01*
X73362419Y-36796741D02*
X73505276Y-36701503D01*
X73505276Y-36701503D02*
X73600514Y-36606265D01*
X73600514Y-36606265D02*
X73648133Y-36511027D01*
X115612782Y-157348609D02*
X115469925Y-157396228D01*
X115469925Y-157396228D02*
X115422306Y-157443847D01*
X115422306Y-157443847D02*
X115374687Y-157539085D01*
X115374687Y-157539085D02*
X115374687Y-157681942D01*
X115374687Y-157681942D02*
X115422306Y-157777180D01*
X115422306Y-157777180D02*
X115469925Y-157824800D01*
X115469925Y-157824800D02*
X115565163Y-157872419D01*
X115565163Y-157872419D02*
X115946115Y-157872419D01*
X115946115Y-157872419D02*
X115946115Y-156872419D01*
X115946115Y-156872419D02*
X115612782Y-156872419D01*
X115612782Y-156872419D02*
X115517544Y-156920038D01*
X115517544Y-156920038D02*
X115469925Y-156967657D01*
X115469925Y-156967657D02*
X115422306Y-157062895D01*
X115422306Y-157062895D02*
X115422306Y-157158133D01*
X115422306Y-157158133D02*
X115469925Y-157253371D01*
X115469925Y-157253371D02*
X115517544Y-157300990D01*
X115517544Y-157300990D02*
X115612782Y-157348609D01*
X115612782Y-157348609D02*
X115946115Y-157348609D01*
X114993734Y-157586704D02*
X114517544Y-157586704D01*
X115088972Y-157872419D02*
X114755639Y-156872419D01*
X114755639Y-156872419D02*
X114422306Y-157872419D01*
X114136591Y-157824800D02*
X113993734Y-157872419D01*
X113993734Y-157872419D02*
X113755639Y-157872419D01*
X113755639Y-157872419D02*
X113660401Y-157824800D01*
X113660401Y-157824800D02*
X113612782Y-157777180D01*
X113612782Y-157777180D02*
X113565163Y-157681942D01*
X113565163Y-157681942D02*
X113565163Y-157586704D01*
X113565163Y-157586704D02*
X113612782Y-157491466D01*
X113612782Y-157491466D02*
X113660401Y-157443847D01*
X113660401Y-157443847D02*
X113755639Y-157396228D01*
X113755639Y-157396228D02*
X113946115Y-157348609D01*
X113946115Y-157348609D02*
X114041353Y-157300990D01*
X114041353Y-157300990D02*
X114088972Y-157253371D01*
X114088972Y-157253371D02*
X114136591Y-157158133D01*
X114136591Y-157158133D02*
X114136591Y-157062895D01*
X114136591Y-157062895D02*
X114088972Y-156967657D01*
X114088972Y-156967657D02*
X114041353Y-156920038D01*
X114041353Y-156920038D02*
X113946115Y-156872419D01*
X113946115Y-156872419D02*
X113708020Y-156872419D01*
X113708020Y-156872419D02*
X113565163Y-156920038D01*
X113136591Y-157348609D02*
X112803258Y-157348609D01*
X112660401Y-157872419D02*
X113136591Y-157872419D01*
X113136591Y-157872419D02*
X113136591Y-156872419D01*
X113136591Y-156872419D02*
X112660401Y-156872419D01*
X111469924Y-157872419D02*
X111469924Y-156872419D01*
X111469924Y-156872419D02*
X111136591Y-157586704D01*
X111136591Y-157586704D02*
X110803258Y-156872419D01*
X110803258Y-156872419D02*
X110803258Y-157872419D01*
X110136591Y-156872419D02*
X109946115Y-156872419D01*
X109946115Y-156872419D02*
X109850877Y-156920038D01*
X109850877Y-156920038D02*
X109755639Y-157015276D01*
X109755639Y-157015276D02*
X109708020Y-157205752D01*
X109708020Y-157205752D02*
X109708020Y-157539085D01*
X109708020Y-157539085D02*
X109755639Y-157729561D01*
X109755639Y-157729561D02*
X109850877Y-157824800D01*
X109850877Y-157824800D02*
X109946115Y-157872419D01*
X109946115Y-157872419D02*
X110136591Y-157872419D01*
X110136591Y-157872419D02*
X110231829Y-157824800D01*
X110231829Y-157824800D02*
X110327067Y-157729561D01*
X110327067Y-157729561D02*
X110374686Y-157539085D01*
X110374686Y-157539085D02*
X110374686Y-157205752D01*
X110374686Y-157205752D02*
X110327067Y-157015276D01*
X110327067Y-157015276D02*
X110231829Y-156920038D01*
X110231829Y-156920038D02*
X110136591Y-156872419D01*
X109422305Y-156872419D02*
X108850877Y-156872419D01*
X109136591Y-157872419D02*
X109136591Y-156872419D01*
X108327067Y-156872419D02*
X108136591Y-156872419D01*
X108136591Y-156872419D02*
X108041353Y-156920038D01*
X108041353Y-156920038D02*
X107946115Y-157015276D01*
X107946115Y-157015276D02*
X107898496Y-157205752D01*
X107898496Y-157205752D02*
X107898496Y-157539085D01*
X107898496Y-157539085D02*
X107946115Y-157729561D01*
X107946115Y-157729561D02*
X108041353Y-157824800D01*
X108041353Y-157824800D02*
X108136591Y-157872419D01*
X108136591Y-157872419D02*
X108327067Y-157872419D01*
X108327067Y-157872419D02*
X108422305Y-157824800D01*
X108422305Y-157824800D02*
X108517543Y-157729561D01*
X108517543Y-157729561D02*
X108565162Y-157539085D01*
X108565162Y-157539085D02*
X108565162Y-157205752D01*
X108565162Y-157205752D02*
X108517543Y-157015276D01*
X108517543Y-157015276D02*
X108422305Y-156920038D01*
X108422305Y-156920038D02*
X108327067Y-156872419D01*
X106898496Y-157872419D02*
X107231829Y-157396228D01*
X107469924Y-157872419D02*
X107469924Y-156872419D01*
X107469924Y-156872419D02*
X107088972Y-156872419D01*
X107088972Y-156872419D02*
X106993734Y-156920038D01*
X106993734Y-156920038D02*
X106946115Y-156967657D01*
X106946115Y-156967657D02*
X106898496Y-157062895D01*
X106898496Y-157062895D02*
X106898496Y-157205752D01*
X106898496Y-157205752D02*
X106946115Y-157300990D01*
X106946115Y-157300990D02*
X106993734Y-157348609D01*
X106993734Y-157348609D02*
X107088972Y-157396228D01*
X107088972Y-157396228D02*
X107469924Y-157396228D01*
X105803257Y-156872419D02*
X105184210Y-156872419D01*
X105184210Y-156872419D02*
X105517543Y-157253371D01*
X105517543Y-157253371D02*
X105374686Y-157253371D01*
X105374686Y-157253371D02*
X105279448Y-157300990D01*
X105279448Y-157300990D02*
X105231829Y-157348609D01*
X105231829Y-157348609D02*
X105184210Y-157443847D01*
X105184210Y-157443847D02*
X105184210Y-157681942D01*
X105184210Y-157681942D02*
X105231829Y-157777180D01*
X105231829Y-157777180D02*
X105279448Y-157824800D01*
X105279448Y-157824800D02*
X105374686Y-157872419D01*
X105374686Y-157872419D02*
X105660400Y-157872419D01*
X105660400Y-157872419D02*
X105755638Y-157824800D01*
X105755638Y-157824800D02*
X105803257Y-157777180D01*
D12*
X85225489Y-136260828D02*
X85225489Y-137475114D01*
X85225489Y-137475114D02*
X85154060Y-137617971D01*
X85154060Y-137617971D02*
X85082632Y-137689400D01*
X85082632Y-137689400D02*
X84939774Y-137760828D01*
X84939774Y-137760828D02*
X84654060Y-137760828D01*
X84654060Y-137760828D02*
X84511203Y-137689400D01*
X84511203Y-137689400D02*
X84439774Y-137617971D01*
X84439774Y-137617971D02*
X84368346Y-137475114D01*
X84368346Y-137475114D02*
X84368346Y-136260828D01*
X83725488Y-137332257D02*
X83011203Y-137332257D01*
X83868345Y-137760828D02*
X83368345Y-136260828D01*
X83368345Y-136260828D02*
X82868345Y-137760828D01*
X81511203Y-137760828D02*
X82011203Y-137046542D01*
X82368346Y-137760828D02*
X82368346Y-136260828D01*
X82368346Y-136260828D02*
X81796917Y-136260828D01*
X81796917Y-136260828D02*
X81654060Y-136332257D01*
X81654060Y-136332257D02*
X81582631Y-136403685D01*
X81582631Y-136403685D02*
X81511203Y-136546542D01*
X81511203Y-136546542D02*
X81511203Y-136760828D01*
X81511203Y-136760828D02*
X81582631Y-136903685D01*
X81582631Y-136903685D02*
X81654060Y-136975114D01*
X81654060Y-136975114D02*
X81796917Y-137046542D01*
X81796917Y-137046542D02*
X82368346Y-137046542D01*
X81082631Y-136260828D02*
X80225489Y-136260828D01*
X80654060Y-137760828D02*
X80654060Y-136260828D01*
D10*
X212012419Y-105713884D02*
X211012419Y-105713884D01*
X211012419Y-105713884D02*
X211726704Y-106047217D01*
X211726704Y-106047217D02*
X211012419Y-106380550D01*
X211012419Y-106380550D02*
X212012419Y-106380550D01*
X211107657Y-106809122D02*
X211060038Y-106856741D01*
X211060038Y-106856741D02*
X211012419Y-106951979D01*
X211012419Y-106951979D02*
X211012419Y-107190074D01*
X211012419Y-107190074D02*
X211060038Y-107285312D01*
X211060038Y-107285312D02*
X211107657Y-107332931D01*
X211107657Y-107332931D02*
X211202895Y-107380550D01*
X211202895Y-107380550D02*
X211298133Y-107380550D01*
X211298133Y-107380550D02*
X211440990Y-107332931D01*
X211440990Y-107332931D02*
X212012419Y-106761503D01*
X212012419Y-106761503D02*
X212012419Y-107380550D01*
X175142306Y-157410038D02*
X175237544Y-157362419D01*
X175237544Y-157362419D02*
X175380401Y-157362419D01*
X175380401Y-157362419D02*
X175523258Y-157410038D01*
X175523258Y-157410038D02*
X175618496Y-157505276D01*
X175618496Y-157505276D02*
X175666115Y-157600514D01*
X175666115Y-157600514D02*
X175713734Y-157790990D01*
X175713734Y-157790990D02*
X175713734Y-157933847D01*
X175713734Y-157933847D02*
X175666115Y-158124323D01*
X175666115Y-158124323D02*
X175618496Y-158219561D01*
X175618496Y-158219561D02*
X175523258Y-158314800D01*
X175523258Y-158314800D02*
X175380401Y-158362419D01*
X175380401Y-158362419D02*
X175285163Y-158362419D01*
X175285163Y-158362419D02*
X175142306Y-158314800D01*
X175142306Y-158314800D02*
X175094687Y-158267180D01*
X175094687Y-158267180D02*
X175094687Y-157933847D01*
X175094687Y-157933847D02*
X175285163Y-157933847D01*
X174666115Y-158362419D02*
X174666115Y-157362419D01*
X174666115Y-157362419D02*
X174285163Y-157362419D01*
X174285163Y-157362419D02*
X174189925Y-157410038D01*
X174189925Y-157410038D02*
X174142306Y-157457657D01*
X174142306Y-157457657D02*
X174094687Y-157552895D01*
X174094687Y-157552895D02*
X174094687Y-157695752D01*
X174094687Y-157695752D02*
X174142306Y-157790990D01*
X174142306Y-157790990D02*
X174189925Y-157838609D01*
X174189925Y-157838609D02*
X174285163Y-157886228D01*
X174285163Y-157886228D02*
X174666115Y-157886228D01*
X173666115Y-158362419D02*
X173666115Y-157362419D01*
X172999449Y-157362419D02*
X172808973Y-157362419D01*
X172808973Y-157362419D02*
X172713735Y-157410038D01*
X172713735Y-157410038D02*
X172618497Y-157505276D01*
X172618497Y-157505276D02*
X172570878Y-157695752D01*
X172570878Y-157695752D02*
X172570878Y-158029085D01*
X172570878Y-158029085D02*
X172618497Y-158219561D01*
X172618497Y-158219561D02*
X172713735Y-158314800D01*
X172713735Y-158314800D02*
X172808973Y-158362419D01*
X172808973Y-158362419D02*
X172999449Y-158362419D01*
X172999449Y-158362419D02*
X173094687Y-158314800D01*
X173094687Y-158314800D02*
X173189925Y-158219561D01*
X173189925Y-158219561D02*
X173237544Y-158029085D01*
X173237544Y-158029085D02*
X173237544Y-157695752D01*
X173237544Y-157695752D02*
X173189925Y-157505276D01*
X173189925Y-157505276D02*
X173094687Y-157410038D01*
X173094687Y-157410038D02*
X172999449Y-157362419D01*
X171380401Y-157838609D02*
X171047068Y-157838609D01*
X170904211Y-158362419D02*
X171380401Y-158362419D01*
X171380401Y-158362419D02*
X171380401Y-157362419D01*
X171380401Y-157362419D02*
X170904211Y-157362419D01*
X170570877Y-157362419D02*
X169904211Y-158362419D01*
X169904211Y-157362419D02*
X170570877Y-158362419D01*
X169666115Y-157362419D02*
X169094687Y-157362419D01*
X169380401Y-158362419D02*
X169380401Y-157362419D01*
D12*
X193445489Y-94830828D02*
X193445489Y-96045114D01*
X193445489Y-96045114D02*
X193374060Y-96187971D01*
X193374060Y-96187971D02*
X193302632Y-96259400D01*
X193302632Y-96259400D02*
X193159774Y-96330828D01*
X193159774Y-96330828D02*
X192874060Y-96330828D01*
X192874060Y-96330828D02*
X192731203Y-96259400D01*
X192731203Y-96259400D02*
X192659774Y-96187971D01*
X192659774Y-96187971D02*
X192588346Y-96045114D01*
X192588346Y-96045114D02*
X192588346Y-94830828D01*
X191945488Y-95902257D02*
X191231203Y-95902257D01*
X192088345Y-96330828D02*
X191588345Y-94830828D01*
X191588345Y-94830828D02*
X191088345Y-96330828D01*
X189731203Y-96330828D02*
X190231203Y-95616542D01*
X190588346Y-96330828D02*
X190588346Y-94830828D01*
X190588346Y-94830828D02*
X190016917Y-94830828D01*
X190016917Y-94830828D02*
X189874060Y-94902257D01*
X189874060Y-94902257D02*
X189802631Y-94973685D01*
X189802631Y-94973685D02*
X189731203Y-95116542D01*
X189731203Y-95116542D02*
X189731203Y-95330828D01*
X189731203Y-95330828D02*
X189802631Y-95473685D01*
X189802631Y-95473685D02*
X189874060Y-95545114D01*
X189874060Y-95545114D02*
X190016917Y-95616542D01*
X190016917Y-95616542D02*
X190588346Y-95616542D01*
X189302631Y-94830828D02*
X188445489Y-94830828D01*
X188874060Y-96330828D02*
X188874060Y-94830828D01*
D10*
X129423734Y-30326704D02*
X128947544Y-30326704D01*
X129518972Y-30612419D02*
X129185639Y-29612419D01*
X129185639Y-29612419D02*
X128852306Y-30612419D01*
X127947544Y-30612419D02*
X128280877Y-30136228D01*
X128518972Y-30612419D02*
X128518972Y-29612419D01*
X128518972Y-29612419D02*
X128138020Y-29612419D01*
X128138020Y-29612419D02*
X128042782Y-29660038D01*
X128042782Y-29660038D02*
X127995163Y-29707657D01*
X127995163Y-29707657D02*
X127947544Y-29802895D01*
X127947544Y-29802895D02*
X127947544Y-29945752D01*
X127947544Y-29945752D02*
X127995163Y-30040990D01*
X127995163Y-30040990D02*
X128042782Y-30088609D01*
X128042782Y-30088609D02*
X128138020Y-30136228D01*
X128138020Y-30136228D02*
X128518972Y-30136228D01*
X127518972Y-30612419D02*
X127518972Y-29612419D01*
X127518972Y-29612419D02*
X127185639Y-30326704D01*
X127185639Y-30326704D02*
X126852306Y-29612419D01*
X126852306Y-29612419D02*
X126852306Y-30612419D01*
X125614210Y-30612419D02*
X125614210Y-29612419D01*
X125614210Y-29612419D02*
X125280877Y-30326704D01*
X125280877Y-30326704D02*
X124947544Y-29612419D01*
X124947544Y-29612419D02*
X124947544Y-30612419D01*
X124566591Y-29612419D02*
X123947544Y-29612419D01*
X123947544Y-29612419D02*
X124280877Y-29993371D01*
X124280877Y-29993371D02*
X124138020Y-29993371D01*
X124138020Y-29993371D02*
X124042782Y-30040990D01*
X124042782Y-30040990D02*
X123995163Y-30088609D01*
X123995163Y-30088609D02*
X123947544Y-30183847D01*
X123947544Y-30183847D02*
X123947544Y-30421942D01*
X123947544Y-30421942D02*
X123995163Y-30517180D01*
X123995163Y-30517180D02*
X124042782Y-30564800D01*
X124042782Y-30564800D02*
X124138020Y-30612419D01*
X124138020Y-30612419D02*
X124423734Y-30612419D01*
X124423734Y-30612419D02*
X124518972Y-30564800D01*
X124518972Y-30564800D02*
X124566591Y-30517180D01*
X153123734Y-157654800D02*
X152980877Y-157702419D01*
X152980877Y-157702419D02*
X152742782Y-157702419D01*
X152742782Y-157702419D02*
X152647544Y-157654800D01*
X152647544Y-157654800D02*
X152599925Y-157607180D01*
X152599925Y-157607180D02*
X152552306Y-157511942D01*
X152552306Y-157511942D02*
X152552306Y-157416704D01*
X152552306Y-157416704D02*
X152599925Y-157321466D01*
X152599925Y-157321466D02*
X152647544Y-157273847D01*
X152647544Y-157273847D02*
X152742782Y-157226228D01*
X152742782Y-157226228D02*
X152933258Y-157178609D01*
X152933258Y-157178609D02*
X153028496Y-157130990D01*
X153028496Y-157130990D02*
X153076115Y-157083371D01*
X153076115Y-157083371D02*
X153123734Y-156988133D01*
X153123734Y-156988133D02*
X153123734Y-156892895D01*
X153123734Y-156892895D02*
X153076115Y-156797657D01*
X153076115Y-156797657D02*
X153028496Y-156750038D01*
X153028496Y-156750038D02*
X152933258Y-156702419D01*
X152933258Y-156702419D02*
X152695163Y-156702419D01*
X152695163Y-156702419D02*
X152552306Y-156750038D01*
X151552306Y-157607180D02*
X151599925Y-157654800D01*
X151599925Y-157654800D02*
X151742782Y-157702419D01*
X151742782Y-157702419D02*
X151838020Y-157702419D01*
X151838020Y-157702419D02*
X151980877Y-157654800D01*
X151980877Y-157654800D02*
X152076115Y-157559561D01*
X152076115Y-157559561D02*
X152123734Y-157464323D01*
X152123734Y-157464323D02*
X152171353Y-157273847D01*
X152171353Y-157273847D02*
X152171353Y-157130990D01*
X152171353Y-157130990D02*
X152123734Y-156940514D01*
X152123734Y-156940514D02*
X152076115Y-156845276D01*
X152076115Y-156845276D02*
X151980877Y-156750038D01*
X151980877Y-156750038D02*
X151838020Y-156702419D01*
X151838020Y-156702419D02*
X151742782Y-156702419D01*
X151742782Y-156702419D02*
X151599925Y-156750038D01*
X151599925Y-156750038D02*
X151552306Y-156797657D01*
X151123734Y-157702419D02*
X151123734Y-156702419D01*
X150647544Y-157178609D02*
X150314211Y-157178609D01*
X150171354Y-157702419D02*
X150647544Y-157702419D01*
X150647544Y-157702419D02*
X150647544Y-156702419D01*
X150647544Y-156702419D02*
X150171354Y-156702419D01*
X149742782Y-157702419D02*
X149742782Y-156702419D01*
X149742782Y-156702419D02*
X149171354Y-157702419D01*
X149171354Y-157702419D02*
X149171354Y-156702419D01*
X148123735Y-157607180D02*
X148171354Y-157654800D01*
X148171354Y-157654800D02*
X148314211Y-157702419D01*
X148314211Y-157702419D02*
X148409449Y-157702419D01*
X148409449Y-157702419D02*
X148552306Y-157654800D01*
X148552306Y-157654800D02*
X148647544Y-157559561D01*
X148647544Y-157559561D02*
X148695163Y-157464323D01*
X148695163Y-157464323D02*
X148742782Y-157273847D01*
X148742782Y-157273847D02*
X148742782Y-157130990D01*
X148742782Y-157130990D02*
X148695163Y-156940514D01*
X148695163Y-156940514D02*
X148647544Y-156845276D01*
X148647544Y-156845276D02*
X148552306Y-156750038D01*
X148552306Y-156750038D02*
X148409449Y-156702419D01*
X148409449Y-156702419D02*
X148314211Y-156702419D01*
X148314211Y-156702419D02*
X148171354Y-156750038D01*
X148171354Y-156750038D02*
X148123735Y-156797657D01*
X147695163Y-157178609D02*
X147361830Y-157178609D01*
X147218973Y-157702419D02*
X147695163Y-157702419D01*
X147695163Y-157702419D02*
X147695163Y-156702419D01*
X147695163Y-156702419D02*
X147218973Y-156702419D01*
X167996115Y-30208609D02*
X167662782Y-30208609D01*
X167519925Y-30732419D02*
X167996115Y-30732419D01*
X167996115Y-30732419D02*
X167996115Y-29732419D01*
X167996115Y-29732419D02*
X167519925Y-29732419D01*
X167091353Y-30732419D02*
X167091353Y-29732419D01*
X167091353Y-29732419D02*
X166519925Y-30732419D01*
X166519925Y-30732419D02*
X166519925Y-29732419D01*
X166043734Y-30732419D02*
X166043734Y-29732419D01*
X166043734Y-29732419D02*
X165805639Y-29732419D01*
X165805639Y-29732419D02*
X165662782Y-29780038D01*
X165662782Y-29780038D02*
X165567544Y-29875276D01*
X165567544Y-29875276D02*
X165519925Y-29970514D01*
X165519925Y-29970514D02*
X165472306Y-30160990D01*
X165472306Y-30160990D02*
X165472306Y-30303847D01*
X165472306Y-30303847D02*
X165519925Y-30494323D01*
X165519925Y-30494323D02*
X165567544Y-30589561D01*
X165567544Y-30589561D02*
X165662782Y-30684800D01*
X165662782Y-30684800D02*
X165805639Y-30732419D01*
X165805639Y-30732419D02*
X166043734Y-30732419D01*
X164281829Y-30732419D02*
X164281829Y-29732419D01*
X164281829Y-29732419D02*
X163948496Y-30446704D01*
X163948496Y-30446704D02*
X163615163Y-29732419D01*
X163615163Y-29732419D02*
X163615163Y-30732419D01*
X163186591Y-29827657D02*
X163138972Y-29780038D01*
X163138972Y-29780038D02*
X163043734Y-29732419D01*
X163043734Y-29732419D02*
X162805639Y-29732419D01*
X162805639Y-29732419D02*
X162710401Y-29780038D01*
X162710401Y-29780038D02*
X162662782Y-29827657D01*
X162662782Y-29827657D02*
X162615163Y-29922895D01*
X162615163Y-29922895D02*
X162615163Y-30018133D01*
X162615163Y-30018133D02*
X162662782Y-30160990D01*
X162662782Y-30160990D02*
X163234210Y-30732419D01*
X163234210Y-30732419D02*
X162615163Y-30732419D01*
X74912782Y-157448609D02*
X74769925Y-157496228D01*
X74769925Y-157496228D02*
X74722306Y-157543847D01*
X74722306Y-157543847D02*
X74674687Y-157639085D01*
X74674687Y-157639085D02*
X74674687Y-157781942D01*
X74674687Y-157781942D02*
X74722306Y-157877180D01*
X74722306Y-157877180D02*
X74769925Y-157924800D01*
X74769925Y-157924800D02*
X74865163Y-157972419D01*
X74865163Y-157972419D02*
X75246115Y-157972419D01*
X75246115Y-157972419D02*
X75246115Y-156972419D01*
X75246115Y-156972419D02*
X74912782Y-156972419D01*
X74912782Y-156972419D02*
X74817544Y-157020038D01*
X74817544Y-157020038D02*
X74769925Y-157067657D01*
X74769925Y-157067657D02*
X74722306Y-157162895D01*
X74722306Y-157162895D02*
X74722306Y-157258133D01*
X74722306Y-157258133D02*
X74769925Y-157353371D01*
X74769925Y-157353371D02*
X74817544Y-157400990D01*
X74817544Y-157400990D02*
X74912782Y-157448609D01*
X74912782Y-157448609D02*
X75246115Y-157448609D01*
X74293734Y-157686704D02*
X73817544Y-157686704D01*
X74388972Y-157972419D02*
X74055639Y-156972419D01*
X74055639Y-156972419D02*
X73722306Y-157972419D01*
X73436591Y-157924800D02*
X73293734Y-157972419D01*
X73293734Y-157972419D02*
X73055639Y-157972419D01*
X73055639Y-157972419D02*
X72960401Y-157924800D01*
X72960401Y-157924800D02*
X72912782Y-157877180D01*
X72912782Y-157877180D02*
X72865163Y-157781942D01*
X72865163Y-157781942D02*
X72865163Y-157686704D01*
X72865163Y-157686704D02*
X72912782Y-157591466D01*
X72912782Y-157591466D02*
X72960401Y-157543847D01*
X72960401Y-157543847D02*
X73055639Y-157496228D01*
X73055639Y-157496228D02*
X73246115Y-157448609D01*
X73246115Y-157448609D02*
X73341353Y-157400990D01*
X73341353Y-157400990D02*
X73388972Y-157353371D01*
X73388972Y-157353371D02*
X73436591Y-157258133D01*
X73436591Y-157258133D02*
X73436591Y-157162895D01*
X73436591Y-157162895D02*
X73388972Y-157067657D01*
X73388972Y-157067657D02*
X73341353Y-157020038D01*
X73341353Y-157020038D02*
X73246115Y-156972419D01*
X73246115Y-156972419D02*
X73008020Y-156972419D01*
X73008020Y-156972419D02*
X72865163Y-157020038D01*
X72436591Y-157448609D02*
X72103258Y-157448609D01*
X71960401Y-157972419D02*
X72436591Y-157972419D01*
X72436591Y-157972419D02*
X72436591Y-156972419D01*
X72436591Y-156972419D02*
X71960401Y-156972419D01*
X70769924Y-157972419D02*
X70769924Y-156972419D01*
X70769924Y-156972419D02*
X70436591Y-157686704D01*
X70436591Y-157686704D02*
X70103258Y-156972419D01*
X70103258Y-156972419D02*
X70103258Y-157972419D01*
X69436591Y-156972419D02*
X69246115Y-156972419D01*
X69246115Y-156972419D02*
X69150877Y-157020038D01*
X69150877Y-157020038D02*
X69055639Y-157115276D01*
X69055639Y-157115276D02*
X69008020Y-157305752D01*
X69008020Y-157305752D02*
X69008020Y-157639085D01*
X69008020Y-157639085D02*
X69055639Y-157829561D01*
X69055639Y-157829561D02*
X69150877Y-157924800D01*
X69150877Y-157924800D02*
X69246115Y-157972419D01*
X69246115Y-157972419D02*
X69436591Y-157972419D01*
X69436591Y-157972419D02*
X69531829Y-157924800D01*
X69531829Y-157924800D02*
X69627067Y-157829561D01*
X69627067Y-157829561D02*
X69674686Y-157639085D01*
X69674686Y-157639085D02*
X69674686Y-157305752D01*
X69674686Y-157305752D02*
X69627067Y-157115276D01*
X69627067Y-157115276D02*
X69531829Y-157020038D01*
X69531829Y-157020038D02*
X69436591Y-156972419D01*
X68722305Y-156972419D02*
X68150877Y-156972419D01*
X68436591Y-157972419D02*
X68436591Y-156972419D01*
X67627067Y-156972419D02*
X67436591Y-156972419D01*
X67436591Y-156972419D02*
X67341353Y-157020038D01*
X67341353Y-157020038D02*
X67246115Y-157115276D01*
X67246115Y-157115276D02*
X67198496Y-157305752D01*
X67198496Y-157305752D02*
X67198496Y-157639085D01*
X67198496Y-157639085D02*
X67246115Y-157829561D01*
X67246115Y-157829561D02*
X67341353Y-157924800D01*
X67341353Y-157924800D02*
X67436591Y-157972419D01*
X67436591Y-157972419D02*
X67627067Y-157972419D01*
X67627067Y-157972419D02*
X67722305Y-157924800D01*
X67722305Y-157924800D02*
X67817543Y-157829561D01*
X67817543Y-157829561D02*
X67865162Y-157639085D01*
X67865162Y-157639085D02*
X67865162Y-157305752D01*
X67865162Y-157305752D02*
X67817543Y-157115276D01*
X67817543Y-157115276D02*
X67722305Y-157020038D01*
X67722305Y-157020038D02*
X67627067Y-156972419D01*
X66198496Y-157972419D02*
X66531829Y-157496228D01*
X66769924Y-157972419D02*
X66769924Y-156972419D01*
X66769924Y-156972419D02*
X66388972Y-156972419D01*
X66388972Y-156972419D02*
X66293734Y-157020038D01*
X66293734Y-157020038D02*
X66246115Y-157067657D01*
X66246115Y-157067657D02*
X66198496Y-157162895D01*
X66198496Y-157162895D02*
X66198496Y-157305752D01*
X66198496Y-157305752D02*
X66246115Y-157400990D01*
X66246115Y-157400990D02*
X66293734Y-157448609D01*
X66293734Y-157448609D02*
X66388972Y-157496228D01*
X66388972Y-157496228D02*
X66769924Y-157496228D01*
X64484210Y-157972419D02*
X65055638Y-157972419D01*
X64769924Y-157972419D02*
X64769924Y-156972419D01*
X64769924Y-156972419D02*
X64865162Y-157115276D01*
X64865162Y-157115276D02*
X64960400Y-157210514D01*
X64960400Y-157210514D02*
X65055638Y-157258133D01*
D13*
X55292057Y-64418871D02*
X55292057Y-66133157D01*
X58292057Y-65276014D02*
X55292057Y-65276014D01*
X56720628Y-67133156D02*
X56720628Y-68133156D01*
X58292057Y-68561728D02*
X58292057Y-67133156D01*
X58292057Y-67133156D02*
X55292057Y-67133156D01*
X55292057Y-67133156D02*
X55292057Y-68561728D01*
X58006342Y-71561728D02*
X58149200Y-71418871D01*
X58149200Y-71418871D02*
X58292057Y-70990299D01*
X58292057Y-70990299D02*
X58292057Y-70704585D01*
X58292057Y-70704585D02*
X58149200Y-70276014D01*
X58149200Y-70276014D02*
X57863485Y-69990299D01*
X57863485Y-69990299D02*
X57577771Y-69847442D01*
X57577771Y-69847442D02*
X57006342Y-69704585D01*
X57006342Y-69704585D02*
X56577771Y-69704585D01*
X56577771Y-69704585D02*
X56006342Y-69847442D01*
X56006342Y-69847442D02*
X55720628Y-69990299D01*
X55720628Y-69990299D02*
X55434914Y-70276014D01*
X55434914Y-70276014D02*
X55292057Y-70704585D01*
X55292057Y-70704585D02*
X55292057Y-70990299D01*
X55292057Y-70990299D02*
X55434914Y-71418871D01*
X55434914Y-71418871D02*
X55577771Y-71561728D01*
X58292057Y-72847442D02*
X55292057Y-72847442D01*
X56720628Y-72847442D02*
X56720628Y-74561728D01*
X58292057Y-74561728D02*
X55292057Y-74561728D01*
X58292057Y-75990299D02*
X55292057Y-75990299D01*
X55292057Y-75990299D02*
X58292057Y-77704585D01*
X58292057Y-77704585D02*
X55292057Y-77704585D01*
X55292057Y-79704585D02*
X55292057Y-80276013D01*
X55292057Y-80276013D02*
X55434914Y-80561728D01*
X55434914Y-80561728D02*
X55720628Y-80847442D01*
X55720628Y-80847442D02*
X56292057Y-80990299D01*
X56292057Y-80990299D02*
X57292057Y-80990299D01*
X57292057Y-80990299D02*
X57863485Y-80847442D01*
X57863485Y-80847442D02*
X58149200Y-80561728D01*
X58149200Y-80561728D02*
X58292057Y-80276013D01*
X58292057Y-80276013D02*
X58292057Y-79704585D01*
X58292057Y-79704585D02*
X58149200Y-79418871D01*
X58149200Y-79418871D02*
X57863485Y-79133156D01*
X57863485Y-79133156D02*
X57292057Y-78990299D01*
X57292057Y-78990299D02*
X56292057Y-78990299D01*
X56292057Y-78990299D02*
X55720628Y-79133156D01*
X55720628Y-79133156D02*
X55434914Y-79418871D01*
X55434914Y-79418871D02*
X55292057Y-79704585D01*
X58006342Y-83990299D02*
X58149200Y-83847442D01*
X58149200Y-83847442D02*
X58292057Y-83418870D01*
X58292057Y-83418870D02*
X58292057Y-83133156D01*
X58292057Y-83133156D02*
X58149200Y-82704585D01*
X58149200Y-82704585D02*
X57863485Y-82418870D01*
X57863485Y-82418870D02*
X57577771Y-82276013D01*
X57577771Y-82276013D02*
X57006342Y-82133156D01*
X57006342Y-82133156D02*
X56577771Y-82133156D01*
X56577771Y-82133156D02*
X56006342Y-82276013D01*
X56006342Y-82276013D02*
X55720628Y-82418870D01*
X55720628Y-82418870D02*
X55434914Y-82704585D01*
X55434914Y-82704585D02*
X55292057Y-83133156D01*
X55292057Y-83133156D02*
X55292057Y-83418870D01*
X55292057Y-83418870D02*
X55434914Y-83847442D01*
X55434914Y-83847442D02*
X55577771Y-83990299D01*
X58292057Y-86990299D02*
X56863485Y-85990299D01*
X58292057Y-85276013D02*
X55292057Y-85276013D01*
X55292057Y-85276013D02*
X55292057Y-86418870D01*
X55292057Y-86418870D02*
X55434914Y-86704585D01*
X55434914Y-86704585D02*
X55577771Y-86847442D01*
X55577771Y-86847442D02*
X55863485Y-86990299D01*
X55863485Y-86990299D02*
X56292057Y-86990299D01*
X56292057Y-86990299D02*
X56577771Y-86847442D01*
X56577771Y-86847442D02*
X56720628Y-86704585D01*
X56720628Y-86704585D02*
X56863485Y-86418870D01*
X56863485Y-86418870D02*
X56863485Y-85276013D01*
X57434914Y-88133156D02*
X57434914Y-89561728D01*
X58292057Y-87847442D02*
X55292057Y-88847442D01*
X55292057Y-88847442D02*
X58292057Y-89847442D01*
X55292057Y-90418871D02*
X55292057Y-92133157D01*
X58292057Y-91276014D02*
X55292057Y-91276014D01*
X58149200Y-92990299D02*
X58292057Y-93418871D01*
X58292057Y-93418871D02*
X58292057Y-94133156D01*
X58292057Y-94133156D02*
X58149200Y-94418871D01*
X58149200Y-94418871D02*
X58006342Y-94561728D01*
X58006342Y-94561728D02*
X57720628Y-94704585D01*
X57720628Y-94704585D02*
X57434914Y-94704585D01*
X57434914Y-94704585D02*
X57149200Y-94561728D01*
X57149200Y-94561728D02*
X57006342Y-94418871D01*
X57006342Y-94418871D02*
X56863485Y-94133156D01*
X56863485Y-94133156D02*
X56720628Y-93561728D01*
X56720628Y-93561728D02*
X56577771Y-93276013D01*
X56577771Y-93276013D02*
X56434914Y-93133156D01*
X56434914Y-93133156D02*
X56149200Y-92990299D01*
X56149200Y-92990299D02*
X55863485Y-92990299D01*
X55863485Y-92990299D02*
X55577771Y-93133156D01*
X55577771Y-93133156D02*
X55434914Y-93276013D01*
X55434914Y-93276013D02*
X55292057Y-93561728D01*
X55292057Y-93561728D02*
X55292057Y-94276013D01*
X55292057Y-94276013D02*
X55434914Y-94704585D01*
X58292057Y-99990299D02*
X56863485Y-98990299D01*
X58292057Y-98276013D02*
X55292057Y-98276013D01*
X55292057Y-98276013D02*
X55292057Y-99418870D01*
X55292057Y-99418870D02*
X55434914Y-99704585D01*
X55434914Y-99704585D02*
X55577771Y-99847442D01*
X55577771Y-99847442D02*
X55863485Y-99990299D01*
X55863485Y-99990299D02*
X56292057Y-99990299D01*
X56292057Y-99990299D02*
X56577771Y-99847442D01*
X56577771Y-99847442D02*
X56720628Y-99704585D01*
X56720628Y-99704585D02*
X56863485Y-99418870D01*
X56863485Y-99418870D02*
X56863485Y-98276013D01*
X55292057Y-101847442D02*
X55292057Y-102418870D01*
X55292057Y-102418870D02*
X55434914Y-102704585D01*
X55434914Y-102704585D02*
X55720628Y-102990299D01*
X55720628Y-102990299D02*
X56292057Y-103133156D01*
X56292057Y-103133156D02*
X57292057Y-103133156D01*
X57292057Y-103133156D02*
X57863485Y-102990299D01*
X57863485Y-102990299D02*
X58149200Y-102704585D01*
X58149200Y-102704585D02*
X58292057Y-102418870D01*
X58292057Y-102418870D02*
X58292057Y-101847442D01*
X58292057Y-101847442D02*
X58149200Y-101561728D01*
X58149200Y-101561728D02*
X57863485Y-101276013D01*
X57863485Y-101276013D02*
X57292057Y-101133156D01*
X57292057Y-101133156D02*
X56292057Y-101133156D01*
X56292057Y-101133156D02*
X55720628Y-101276013D01*
X55720628Y-101276013D02*
X55434914Y-101561728D01*
X55434914Y-101561728D02*
X55292057Y-101847442D01*
X56720628Y-105418870D02*
X56863485Y-105847442D01*
X56863485Y-105847442D02*
X57006342Y-105990299D01*
X57006342Y-105990299D02*
X57292057Y-106133156D01*
X57292057Y-106133156D02*
X57720628Y-106133156D01*
X57720628Y-106133156D02*
X58006342Y-105990299D01*
X58006342Y-105990299D02*
X58149200Y-105847442D01*
X58149200Y-105847442D02*
X58292057Y-105561727D01*
X58292057Y-105561727D02*
X58292057Y-104418870D01*
X58292057Y-104418870D02*
X55292057Y-104418870D01*
X55292057Y-104418870D02*
X55292057Y-105418870D01*
X55292057Y-105418870D02*
X55434914Y-105704585D01*
X55434914Y-105704585D02*
X55577771Y-105847442D01*
X55577771Y-105847442D02*
X55863485Y-105990299D01*
X55863485Y-105990299D02*
X56149200Y-105990299D01*
X56149200Y-105990299D02*
X56434914Y-105847442D01*
X56434914Y-105847442D02*
X56577771Y-105704585D01*
X56577771Y-105704585D02*
X56720628Y-105418870D01*
X56720628Y-105418870D02*
X56720628Y-104418870D01*
X55292057Y-107990299D02*
X55292057Y-108561727D01*
X55292057Y-108561727D02*
X55434914Y-108847442D01*
X55434914Y-108847442D02*
X55720628Y-109133156D01*
X55720628Y-109133156D02*
X56292057Y-109276013D01*
X56292057Y-109276013D02*
X57292057Y-109276013D01*
X57292057Y-109276013D02*
X57863485Y-109133156D01*
X57863485Y-109133156D02*
X58149200Y-108847442D01*
X58149200Y-108847442D02*
X58292057Y-108561727D01*
X58292057Y-108561727D02*
X58292057Y-107990299D01*
X58292057Y-107990299D02*
X58149200Y-107704585D01*
X58149200Y-107704585D02*
X57863485Y-107418870D01*
X57863485Y-107418870D02*
X57292057Y-107276013D01*
X57292057Y-107276013D02*
X56292057Y-107276013D01*
X56292057Y-107276013D02*
X55720628Y-107418870D01*
X55720628Y-107418870D02*
X55434914Y-107704585D01*
X55434914Y-107704585D02*
X55292057Y-107990299D01*
X55292057Y-110133156D02*
X55292057Y-111847442D01*
X58292057Y-110990299D02*
X55292057Y-110990299D01*
X58292057Y-112847441D02*
X55292057Y-112847441D01*
X58006342Y-115990298D02*
X58149200Y-115847441D01*
X58149200Y-115847441D02*
X58292057Y-115418869D01*
X58292057Y-115418869D02*
X58292057Y-115133155D01*
X58292057Y-115133155D02*
X58149200Y-114704584D01*
X58149200Y-114704584D02*
X57863485Y-114418869D01*
X57863485Y-114418869D02*
X57577771Y-114276012D01*
X57577771Y-114276012D02*
X57006342Y-114133155D01*
X57006342Y-114133155D02*
X56577771Y-114133155D01*
X56577771Y-114133155D02*
X56006342Y-114276012D01*
X56006342Y-114276012D02*
X55720628Y-114418869D01*
X55720628Y-114418869D02*
X55434914Y-114704584D01*
X55434914Y-114704584D02*
X55292057Y-115133155D01*
X55292057Y-115133155D02*
X55292057Y-115418869D01*
X55292057Y-115418869D02*
X55434914Y-115847441D01*
X55434914Y-115847441D02*
X55577771Y-115990298D01*
X58149200Y-117133155D02*
X58292057Y-117561727D01*
X58292057Y-117561727D02*
X58292057Y-118276012D01*
X58292057Y-118276012D02*
X58149200Y-118561727D01*
X58149200Y-118561727D02*
X58006342Y-118704584D01*
X58006342Y-118704584D02*
X57720628Y-118847441D01*
X57720628Y-118847441D02*
X57434914Y-118847441D01*
X57434914Y-118847441D02*
X57149200Y-118704584D01*
X57149200Y-118704584D02*
X57006342Y-118561727D01*
X57006342Y-118561727D02*
X56863485Y-118276012D01*
X56863485Y-118276012D02*
X56720628Y-117704584D01*
X56720628Y-117704584D02*
X56577771Y-117418869D01*
X56577771Y-117418869D02*
X56434914Y-117276012D01*
X56434914Y-117276012D02*
X56149200Y-117133155D01*
X56149200Y-117133155D02*
X55863485Y-117133155D01*
X55863485Y-117133155D02*
X55577771Y-117276012D01*
X55577771Y-117276012D02*
X55434914Y-117418869D01*
X55434914Y-117418869D02*
X55292057Y-117704584D01*
X55292057Y-117704584D02*
X55292057Y-118418869D01*
X55292057Y-118418869D02*
X55434914Y-118847441D01*
D12*
X100798346Y-55927971D02*
X100869774Y-55999400D01*
X100869774Y-55999400D02*
X101084060Y-56070828D01*
X101084060Y-56070828D02*
X101226917Y-56070828D01*
X101226917Y-56070828D02*
X101441203Y-55999400D01*
X101441203Y-55999400D02*
X101584060Y-55856542D01*
X101584060Y-55856542D02*
X101655489Y-55713685D01*
X101655489Y-55713685D02*
X101726917Y-55427971D01*
X101726917Y-55427971D02*
X101726917Y-55213685D01*
X101726917Y-55213685D02*
X101655489Y-54927971D01*
X101655489Y-54927971D02*
X101584060Y-54785114D01*
X101584060Y-54785114D02*
X101441203Y-54642257D01*
X101441203Y-54642257D02*
X101226917Y-54570828D01*
X101226917Y-54570828D02*
X101084060Y-54570828D01*
X101084060Y-54570828D02*
X100869774Y-54642257D01*
X100869774Y-54642257D02*
X100798346Y-54713685D01*
X100226917Y-55642257D02*
X99512632Y-55642257D01*
X100369774Y-56070828D02*
X99869774Y-54570828D01*
X99869774Y-54570828D02*
X99369774Y-56070828D01*
X98869775Y-56070828D02*
X98869775Y-54570828D01*
X98869775Y-54570828D02*
X98012632Y-56070828D01*
X98012632Y-56070828D02*
X98012632Y-54570828D01*
X48534510Y-93619171D02*
X48534510Y-95119171D01*
X49177368Y-94976314D02*
X49248796Y-95047742D01*
X49248796Y-95047742D02*
X49391654Y-95119171D01*
X49391654Y-95119171D02*
X49748796Y-95119171D01*
X49748796Y-95119171D02*
X49891654Y-95047742D01*
X49891654Y-95047742D02*
X49963082Y-94976314D01*
X49963082Y-94976314D02*
X50034511Y-94833457D01*
X50034511Y-94833457D02*
X50034511Y-94690600D01*
X50034511Y-94690600D02*
X49963082Y-94476314D01*
X49963082Y-94476314D02*
X49105939Y-93619171D01*
X49105939Y-93619171D02*
X50034511Y-93619171D01*
X51534510Y-93762028D02*
X51463082Y-93690600D01*
X51463082Y-93690600D02*
X51248796Y-93619171D01*
X51248796Y-93619171D02*
X51105939Y-93619171D01*
X51105939Y-93619171D02*
X50891653Y-93690600D01*
X50891653Y-93690600D02*
X50748796Y-93833457D01*
X50748796Y-93833457D02*
X50677367Y-93976314D01*
X50677367Y-93976314D02*
X50605939Y-94262028D01*
X50605939Y-94262028D02*
X50605939Y-94476314D01*
X50605939Y-94476314D02*
X50677367Y-94762028D01*
X50677367Y-94762028D02*
X50748796Y-94904885D01*
X50748796Y-94904885D02*
X50891653Y-95047742D01*
X50891653Y-95047742D02*
X51105939Y-95119171D01*
X51105939Y-95119171D02*
X51248796Y-95119171D01*
X51248796Y-95119171D02*
X51463082Y-95047742D01*
X51463082Y-95047742D02*
X51534510Y-94976314D01*
D13*
X209900652Y-144452225D02*
X209900652Y-141452225D01*
X209900652Y-141452225D02*
X209233985Y-143595082D01*
X209233985Y-143595082D02*
X208567319Y-141452225D01*
X208567319Y-141452225D02*
X208567319Y-144452225D01*
X206757795Y-144452225D02*
X206757795Y-142880796D01*
X206757795Y-142880796D02*
X206853033Y-142595082D01*
X206853033Y-142595082D02*
X207043509Y-142452225D01*
X207043509Y-142452225D02*
X207424462Y-142452225D01*
X207424462Y-142452225D02*
X207614938Y-142595082D01*
X206757795Y-144309368D02*
X206948271Y-144452225D01*
X206948271Y-144452225D02*
X207424462Y-144452225D01*
X207424462Y-144452225D02*
X207614938Y-144309368D01*
X207614938Y-144309368D02*
X207710176Y-144023653D01*
X207710176Y-144023653D02*
X207710176Y-143737939D01*
X207710176Y-143737939D02*
X207614938Y-143452225D01*
X207614938Y-143452225D02*
X207424462Y-143309368D01*
X207424462Y-143309368D02*
X206948271Y-143309368D01*
X206948271Y-143309368D02*
X206757795Y-143166510D01*
X204948271Y-144452225D02*
X204948271Y-141452225D01*
X204948271Y-144309368D02*
X205138747Y-144452225D01*
X205138747Y-144452225D02*
X205519700Y-144452225D01*
X205519700Y-144452225D02*
X205710176Y-144309368D01*
X205710176Y-144309368D02*
X205805414Y-144166510D01*
X205805414Y-144166510D02*
X205900652Y-143880796D01*
X205900652Y-143880796D02*
X205900652Y-143023653D01*
X205900652Y-143023653D02*
X205805414Y-142737939D01*
X205805414Y-142737939D02*
X205710176Y-142595082D01*
X205710176Y-142595082D02*
X205519700Y-142452225D01*
X205519700Y-142452225D02*
X205138747Y-142452225D01*
X205138747Y-142452225D02*
X204948271Y-142595082D01*
X203233985Y-144309368D02*
X203424461Y-144452225D01*
X203424461Y-144452225D02*
X203805414Y-144452225D01*
X203805414Y-144452225D02*
X203995890Y-144309368D01*
X203995890Y-144309368D02*
X204091128Y-144023653D01*
X204091128Y-144023653D02*
X204091128Y-142880796D01*
X204091128Y-142880796D02*
X203995890Y-142595082D01*
X203995890Y-142595082D02*
X203805414Y-142452225D01*
X203805414Y-142452225D02*
X203424461Y-142452225D01*
X203424461Y-142452225D02*
X203233985Y-142595082D01*
X203233985Y-142595082D02*
X203138747Y-142880796D01*
X203138747Y-142880796D02*
X203138747Y-143166510D01*
X203138747Y-143166510D02*
X204091128Y-143452225D01*
X200757794Y-144452225D02*
X200757794Y-141452225D01*
X200757794Y-142595082D02*
X200567318Y-142452225D01*
X200567318Y-142452225D02*
X200186365Y-142452225D01*
X200186365Y-142452225D02*
X199995889Y-142595082D01*
X199995889Y-142595082D02*
X199900651Y-142737939D01*
X199900651Y-142737939D02*
X199805413Y-143023653D01*
X199805413Y-143023653D02*
X199805413Y-143880796D01*
X199805413Y-143880796D02*
X199900651Y-144166510D01*
X199900651Y-144166510D02*
X199995889Y-144309368D01*
X199995889Y-144309368D02*
X200186365Y-144452225D01*
X200186365Y-144452225D02*
X200567318Y-144452225D01*
X200567318Y-144452225D02*
X200757794Y-144309368D01*
X199138746Y-142452225D02*
X198662556Y-144452225D01*
X198186365Y-142452225D02*
X198662556Y-144452225D01*
X198662556Y-144452225D02*
X198853032Y-145166510D01*
X198853032Y-145166510D02*
X198948270Y-145309368D01*
X198948270Y-145309368D02*
X199138746Y-145452225D01*
X197424460Y-144166510D02*
X197329222Y-144309368D01*
X197329222Y-144309368D02*
X197424460Y-144452225D01*
X197424460Y-144452225D02*
X197519698Y-144309368D01*
X197519698Y-144309368D02*
X197424460Y-144166510D01*
X197424460Y-144166510D02*
X197424460Y-144452225D01*
X197424460Y-142595082D02*
X197329222Y-142737939D01*
X197329222Y-142737939D02*
X197424460Y-142880796D01*
X197424460Y-142880796D02*
X197519698Y-142737939D01*
X197519698Y-142737939D02*
X197424460Y-142595082D01*
X197424460Y-142595082D02*
X197424460Y-142880796D01*
X195233983Y-141452225D02*
X194091126Y-141452225D01*
X194662555Y-144452225D02*
X194662555Y-141452225D01*
X192567316Y-144452225D02*
X192567316Y-142880796D01*
X192567316Y-142880796D02*
X192662554Y-142595082D01*
X192662554Y-142595082D02*
X192853030Y-142452225D01*
X192853030Y-142452225D02*
X193233983Y-142452225D01*
X193233983Y-142452225D02*
X193424459Y-142595082D01*
X192567316Y-144309368D02*
X192757792Y-144452225D01*
X192757792Y-144452225D02*
X193233983Y-144452225D01*
X193233983Y-144452225D02*
X193424459Y-144309368D01*
X193424459Y-144309368D02*
X193519697Y-144023653D01*
X193519697Y-144023653D02*
X193519697Y-143737939D01*
X193519697Y-143737939D02*
X193424459Y-143452225D01*
X193424459Y-143452225D02*
X193233983Y-143309368D01*
X193233983Y-143309368D02*
X192757792Y-143309368D01*
X192757792Y-143309368D02*
X192567316Y-143166510D01*
X191614935Y-142452225D02*
X191614935Y-144452225D01*
X191614935Y-142737939D02*
X191519697Y-142595082D01*
X191519697Y-142595082D02*
X191329221Y-142452225D01*
X191329221Y-142452225D02*
X191043506Y-142452225D01*
X191043506Y-142452225D02*
X190853030Y-142595082D01*
X190853030Y-142595082D02*
X190757792Y-142880796D01*
X190757792Y-142880796D02*
X190757792Y-144452225D01*
X188948268Y-142452225D02*
X188948268Y-144452225D01*
X189805411Y-142452225D02*
X189805411Y-144023653D01*
X189805411Y-144023653D02*
X189710173Y-144309368D01*
X189710173Y-144309368D02*
X189519697Y-144452225D01*
X189519697Y-144452225D02*
X189233982Y-144452225D01*
X189233982Y-144452225D02*
X189043506Y-144309368D01*
X189043506Y-144309368D02*
X188948268Y-144166510D01*
X187995887Y-142452225D02*
X187995887Y-145023653D01*
X187995887Y-145023653D02*
X188091125Y-145309368D01*
X188091125Y-145309368D02*
X188281601Y-145452225D01*
X188281601Y-145452225D02*
X188376839Y-145452225D01*
X187995887Y-141452225D02*
X188091125Y-141595082D01*
X188091125Y-141595082D02*
X187995887Y-141737939D01*
X187995887Y-141737939D02*
X187900649Y-141595082D01*
X187900649Y-141595082D02*
X187995887Y-141452225D01*
X187995887Y-141452225D02*
X187995887Y-141737939D01*
X184376839Y-144452225D02*
X185043506Y-143023653D01*
X185519696Y-144452225D02*
X185519696Y-141452225D01*
X185519696Y-141452225D02*
X184757791Y-141452225D01*
X184757791Y-141452225D02*
X184567315Y-141595082D01*
X184567315Y-141595082D02*
X184472077Y-141737939D01*
X184472077Y-141737939D02*
X184376839Y-142023653D01*
X184376839Y-142023653D02*
X184376839Y-142452225D01*
X184376839Y-142452225D02*
X184472077Y-142737939D01*
X184472077Y-142737939D02*
X184567315Y-142880796D01*
X184567315Y-142880796D02*
X184757791Y-143023653D01*
X184757791Y-143023653D02*
X185519696Y-143023653D01*
X182662553Y-144452225D02*
X182662553Y-142880796D01*
X182662553Y-142880796D02*
X182757791Y-142595082D01*
X182757791Y-142595082D02*
X182948267Y-142452225D01*
X182948267Y-142452225D02*
X183329220Y-142452225D01*
X183329220Y-142452225D02*
X183519696Y-142595082D01*
X182662553Y-144309368D02*
X182853029Y-144452225D01*
X182853029Y-144452225D02*
X183329220Y-144452225D01*
X183329220Y-144452225D02*
X183519696Y-144309368D01*
X183519696Y-144309368D02*
X183614934Y-144023653D01*
X183614934Y-144023653D02*
X183614934Y-143737939D01*
X183614934Y-143737939D02*
X183519696Y-143452225D01*
X183519696Y-143452225D02*
X183329220Y-143309368D01*
X183329220Y-143309368D02*
X182853029Y-143309368D01*
X182853029Y-143309368D02*
X182662553Y-143166510D01*
X181710172Y-144452225D02*
X181710172Y-142452225D01*
X181710172Y-141452225D02*
X181805410Y-141595082D01*
X181805410Y-141595082D02*
X181710172Y-141737939D01*
X181710172Y-141737939D02*
X181614934Y-141595082D01*
X181614934Y-141595082D02*
X181710172Y-141452225D01*
X181710172Y-141452225D02*
X181710172Y-141737939D01*
X194662552Y-149282057D02*
X194662552Y-146282057D01*
X194662552Y-146282057D02*
X193900647Y-146282057D01*
X193900647Y-146282057D02*
X193710171Y-146424914D01*
X193710171Y-146424914D02*
X193614933Y-146567771D01*
X193614933Y-146567771D02*
X193519695Y-146853485D01*
X193519695Y-146853485D02*
X193519695Y-147282057D01*
X193519695Y-147282057D02*
X193614933Y-147567771D01*
X193614933Y-147567771D02*
X193710171Y-147710628D01*
X193710171Y-147710628D02*
X193900647Y-147853485D01*
X193900647Y-147853485D02*
X194662552Y-147853485D01*
X192662552Y-149282057D02*
X192662552Y-147282057D01*
X192662552Y-147853485D02*
X192567314Y-147567771D01*
X192567314Y-147567771D02*
X192472076Y-147424914D01*
X192472076Y-147424914D02*
X192281600Y-147282057D01*
X192281600Y-147282057D02*
X192091123Y-147282057D01*
X190567314Y-149282057D02*
X190567314Y-147710628D01*
X190567314Y-147710628D02*
X190662552Y-147424914D01*
X190662552Y-147424914D02*
X190853028Y-147282057D01*
X190853028Y-147282057D02*
X191233981Y-147282057D01*
X191233981Y-147282057D02*
X191424457Y-147424914D01*
X190567314Y-149139200D02*
X190757790Y-149282057D01*
X190757790Y-149282057D02*
X191233981Y-149282057D01*
X191233981Y-149282057D02*
X191424457Y-149139200D01*
X191424457Y-149139200D02*
X191519695Y-148853485D01*
X191519695Y-148853485D02*
X191519695Y-148567771D01*
X191519695Y-148567771D02*
X191424457Y-148282057D01*
X191424457Y-148282057D02*
X191233981Y-148139200D01*
X191233981Y-148139200D02*
X190757790Y-148139200D01*
X190757790Y-148139200D02*
X190567314Y-147996342D01*
X189900647Y-147282057D02*
X189138743Y-147282057D01*
X189614933Y-146282057D02*
X189614933Y-148853485D01*
X189614933Y-148853485D02*
X189519695Y-149139200D01*
X189519695Y-149139200D02*
X189329219Y-149282057D01*
X189329219Y-149282057D02*
X189138743Y-149282057D01*
X188662552Y-147282057D02*
X188186362Y-149282057D01*
X187710171Y-147282057D02*
X188186362Y-149282057D01*
X188186362Y-149282057D02*
X188376838Y-149996342D01*
X188376838Y-149996342D02*
X188472076Y-150139200D01*
X188472076Y-150139200D02*
X188662552Y-150282057D01*
X186091123Y-147282057D02*
X186091123Y-149282057D01*
X186948266Y-147282057D02*
X186948266Y-148853485D01*
X186948266Y-148853485D02*
X186853028Y-149139200D01*
X186853028Y-149139200D02*
X186662552Y-149282057D01*
X186662552Y-149282057D02*
X186376837Y-149282057D01*
X186376837Y-149282057D02*
X186186361Y-149139200D01*
X186186361Y-149139200D02*
X186091123Y-148996342D01*
X185233980Y-149139200D02*
X185043504Y-149282057D01*
X185043504Y-149282057D02*
X184662552Y-149282057D01*
X184662552Y-149282057D02*
X184472075Y-149139200D01*
X184472075Y-149139200D02*
X184376837Y-148853485D01*
X184376837Y-148853485D02*
X184376837Y-148710628D01*
X184376837Y-148710628D02*
X184472075Y-148424914D01*
X184472075Y-148424914D02*
X184662552Y-148282057D01*
X184662552Y-148282057D02*
X184948266Y-148282057D01*
X184948266Y-148282057D02*
X185138742Y-148139200D01*
X185138742Y-148139200D02*
X185233980Y-147853485D01*
X185233980Y-147853485D02*
X185233980Y-147710628D01*
X185233980Y-147710628D02*
X185138742Y-147424914D01*
X185138742Y-147424914D02*
X184948266Y-147282057D01*
X184948266Y-147282057D02*
X184662552Y-147282057D01*
X184662552Y-147282057D02*
X184472075Y-147424914D01*
X183519694Y-149282057D02*
X183519694Y-146282057D01*
X182662551Y-149282057D02*
X182662551Y-147710628D01*
X182662551Y-147710628D02*
X182757789Y-147424914D01*
X182757789Y-147424914D02*
X182948265Y-147282057D01*
X182948265Y-147282057D02*
X183233980Y-147282057D01*
X183233980Y-147282057D02*
X183424456Y-147424914D01*
X183424456Y-147424914D02*
X183519694Y-147567771D01*
X180281598Y-149139200D02*
X179995884Y-149282057D01*
X179995884Y-149282057D02*
X179519693Y-149282057D01*
X179519693Y-149282057D02*
X179329217Y-149139200D01*
X179329217Y-149139200D02*
X179233979Y-148996342D01*
X179233979Y-148996342D02*
X179138741Y-148710628D01*
X179138741Y-148710628D02*
X179138741Y-148424914D01*
X179138741Y-148424914D02*
X179233979Y-148139200D01*
X179233979Y-148139200D02*
X179329217Y-147996342D01*
X179329217Y-147996342D02*
X179519693Y-147853485D01*
X179519693Y-147853485D02*
X179900646Y-147710628D01*
X179900646Y-147710628D02*
X180091122Y-147567771D01*
X180091122Y-147567771D02*
X180186360Y-147424914D01*
X180186360Y-147424914D02*
X180281598Y-147139200D01*
X180281598Y-147139200D02*
X180281598Y-146853485D01*
X180281598Y-146853485D02*
X180186360Y-146567771D01*
X180186360Y-146567771D02*
X180091122Y-146424914D01*
X180091122Y-146424914D02*
X179900646Y-146282057D01*
X179900646Y-146282057D02*
X179424455Y-146282057D01*
X179424455Y-146282057D02*
X179138741Y-146424914D01*
X178281598Y-149282057D02*
X178281598Y-147282057D01*
X178281598Y-147853485D02*
X178186360Y-147567771D01*
X178186360Y-147567771D02*
X178091122Y-147424914D01*
X178091122Y-147424914D02*
X177900646Y-147282057D01*
X177900646Y-147282057D02*
X177710169Y-147282057D01*
X176281598Y-149139200D02*
X176472074Y-149282057D01*
X176472074Y-149282057D02*
X176853027Y-149282057D01*
X176853027Y-149282057D02*
X177043503Y-149139200D01*
X177043503Y-149139200D02*
X177138741Y-148853485D01*
X177138741Y-148853485D02*
X177138741Y-147710628D01*
X177138741Y-147710628D02*
X177043503Y-147424914D01*
X177043503Y-147424914D02*
X176853027Y-147282057D01*
X176853027Y-147282057D02*
X176472074Y-147282057D01*
X176472074Y-147282057D02*
X176281598Y-147424914D01*
X176281598Y-147424914D02*
X176186360Y-147710628D01*
X176186360Y-147710628D02*
X176186360Y-147996342D01*
X176186360Y-147996342D02*
X177138741Y-148282057D01*
X174567312Y-149139200D02*
X174757788Y-149282057D01*
X174757788Y-149282057D02*
X175138741Y-149282057D01*
X175138741Y-149282057D02*
X175329217Y-149139200D01*
X175329217Y-149139200D02*
X175424455Y-148853485D01*
X175424455Y-148853485D02*
X175424455Y-147710628D01*
X175424455Y-147710628D02*
X175329217Y-147424914D01*
X175329217Y-147424914D02*
X175138741Y-147282057D01*
X175138741Y-147282057D02*
X174757788Y-147282057D01*
X174757788Y-147282057D02*
X174567312Y-147424914D01*
X174567312Y-147424914D02*
X174472074Y-147710628D01*
X174472074Y-147710628D02*
X174472074Y-147996342D01*
X174472074Y-147996342D02*
X175424455Y-148282057D01*
X173614931Y-149282057D02*
X173614931Y-146282057D01*
X173424455Y-148139200D02*
X172853026Y-149282057D01*
X172853026Y-147282057D02*
X173614931Y-148424914D01*
X171138740Y-147282057D02*
X171138740Y-149282057D01*
X171995883Y-147282057D02*
X171995883Y-148853485D01*
X171995883Y-148853485D02*
X171900645Y-149139200D01*
X171900645Y-149139200D02*
X171710169Y-149282057D01*
X171710169Y-149282057D02*
X171424454Y-149282057D01*
X171424454Y-149282057D02*
X171233978Y-149139200D01*
X171233978Y-149139200D02*
X171138740Y-148996342D01*
X170186359Y-149282057D02*
X170186359Y-147282057D01*
X170186359Y-147567771D02*
X170091121Y-147424914D01*
X170091121Y-147424914D02*
X169900645Y-147282057D01*
X169900645Y-147282057D02*
X169614930Y-147282057D01*
X169614930Y-147282057D02*
X169424454Y-147424914D01*
X169424454Y-147424914D02*
X169329216Y-147710628D01*
X169329216Y-147710628D02*
X169329216Y-149282057D01*
X169329216Y-147710628D02*
X169233978Y-147424914D01*
X169233978Y-147424914D02*
X169043502Y-147282057D01*
X169043502Y-147282057D02*
X168757788Y-147282057D01*
X168757788Y-147282057D02*
X168567311Y-147424914D01*
X168567311Y-147424914D02*
X168472073Y-147710628D01*
X168472073Y-147710628D02*
X168472073Y-149282057D01*
X166662549Y-149282057D02*
X166662549Y-147710628D01*
X166662549Y-147710628D02*
X166757787Y-147424914D01*
X166757787Y-147424914D02*
X166948263Y-147282057D01*
X166948263Y-147282057D02*
X167329216Y-147282057D01*
X167329216Y-147282057D02*
X167519692Y-147424914D01*
X166662549Y-149139200D02*
X166853025Y-149282057D01*
X166853025Y-149282057D02*
X167329216Y-149282057D01*
X167329216Y-149282057D02*
X167519692Y-149139200D01*
X167519692Y-149139200D02*
X167614930Y-148853485D01*
X167614930Y-148853485D02*
X167614930Y-148567771D01*
X167614930Y-148567771D02*
X167519692Y-148282057D01*
X167519692Y-148282057D02*
X167329216Y-148139200D01*
X167329216Y-148139200D02*
X166853025Y-148139200D01*
X166853025Y-148139200D02*
X166662549Y-147996342D01*
X165710168Y-149282057D02*
X165710168Y-147282057D01*
X165710168Y-147853485D02*
X165614930Y-147567771D01*
X165614930Y-147567771D02*
X165519692Y-147424914D01*
X165519692Y-147424914D02*
X165329216Y-147282057D01*
X165329216Y-147282057D02*
X165138739Y-147282057D01*
D10*
X207472419Y-58523884D02*
X206472419Y-58523884D01*
X206472419Y-58523884D02*
X207186704Y-58857217D01*
X207186704Y-58857217D02*
X206472419Y-59190550D01*
X206472419Y-59190550D02*
X207472419Y-59190550D01*
X207472419Y-60190550D02*
X207472419Y-59619122D01*
X207472419Y-59904836D02*
X206472419Y-59904836D01*
X206472419Y-59904836D02*
X206615276Y-59809598D01*
X206615276Y-59809598D02*
X206710514Y-59714360D01*
X206710514Y-59714360D02*
X206758133Y-59619122D01*
X148716115Y-30188609D02*
X148382782Y-30188609D01*
X148239925Y-30712419D02*
X148716115Y-30712419D01*
X148716115Y-30712419D02*
X148716115Y-29712419D01*
X148716115Y-29712419D02*
X148239925Y-29712419D01*
X147811353Y-30712419D02*
X147811353Y-29712419D01*
X147811353Y-29712419D02*
X147239925Y-30712419D01*
X147239925Y-30712419D02*
X147239925Y-29712419D01*
X146763734Y-30712419D02*
X146763734Y-29712419D01*
X146763734Y-29712419D02*
X146525639Y-29712419D01*
X146525639Y-29712419D02*
X146382782Y-29760038D01*
X146382782Y-29760038D02*
X146287544Y-29855276D01*
X146287544Y-29855276D02*
X146239925Y-29950514D01*
X146239925Y-29950514D02*
X146192306Y-30140990D01*
X146192306Y-30140990D02*
X146192306Y-30283847D01*
X146192306Y-30283847D02*
X146239925Y-30474323D01*
X146239925Y-30474323D02*
X146287544Y-30569561D01*
X146287544Y-30569561D02*
X146382782Y-30664800D01*
X146382782Y-30664800D02*
X146525639Y-30712419D01*
X146525639Y-30712419D02*
X146763734Y-30712419D01*
X145001829Y-30712419D02*
X145001829Y-29712419D01*
X145001829Y-29712419D02*
X144668496Y-30426704D01*
X144668496Y-30426704D02*
X144335163Y-29712419D01*
X144335163Y-29712419D02*
X144335163Y-30712419D01*
X143335163Y-30712419D02*
X143906591Y-30712419D01*
X143620877Y-30712419D02*
X143620877Y-29712419D01*
X143620877Y-29712419D02*
X143716115Y-29855276D01*
X143716115Y-29855276D02*
X143811353Y-29950514D01*
X143811353Y-29950514D02*
X143906591Y-29998133D01*
D12*
X114380828Y-49704510D02*
X112880828Y-49704510D01*
X113023685Y-50347368D02*
X112952257Y-50418796D01*
X112952257Y-50418796D02*
X112880828Y-50561654D01*
X112880828Y-50561654D02*
X112880828Y-50918796D01*
X112880828Y-50918796D02*
X112952257Y-51061654D01*
X112952257Y-51061654D02*
X113023685Y-51133082D01*
X113023685Y-51133082D02*
X113166542Y-51204511D01*
X113166542Y-51204511D02*
X113309400Y-51204511D01*
X113309400Y-51204511D02*
X113523685Y-51133082D01*
X113523685Y-51133082D02*
X114380828Y-50275939D01*
X114380828Y-50275939D02*
X114380828Y-51204511D01*
X114237971Y-52704510D02*
X114309400Y-52633082D01*
X114309400Y-52633082D02*
X114380828Y-52418796D01*
X114380828Y-52418796D02*
X114380828Y-52275939D01*
X114380828Y-52275939D02*
X114309400Y-52061653D01*
X114309400Y-52061653D02*
X114166542Y-51918796D01*
X114166542Y-51918796D02*
X114023685Y-51847367D01*
X114023685Y-51847367D02*
X113737971Y-51775939D01*
X113737971Y-51775939D02*
X113523685Y-51775939D01*
X113523685Y-51775939D02*
X113237971Y-51847367D01*
X113237971Y-51847367D02*
X113095114Y-51918796D01*
X113095114Y-51918796D02*
X112952257Y-52061653D01*
X112952257Y-52061653D02*
X112880828Y-52275939D01*
X112880828Y-52275939D02*
X112880828Y-52418796D01*
X112880828Y-52418796D02*
X112952257Y-52633082D01*
X112952257Y-52633082D02*
X113023685Y-52704510D01*
D10*
X107163734Y-30116704D02*
X106687544Y-30116704D01*
X107258972Y-30402419D02*
X106925639Y-29402419D01*
X106925639Y-29402419D02*
X106592306Y-30402419D01*
X105687544Y-30402419D02*
X106020877Y-29926228D01*
X106258972Y-30402419D02*
X106258972Y-29402419D01*
X106258972Y-29402419D02*
X105878020Y-29402419D01*
X105878020Y-29402419D02*
X105782782Y-29450038D01*
X105782782Y-29450038D02*
X105735163Y-29497657D01*
X105735163Y-29497657D02*
X105687544Y-29592895D01*
X105687544Y-29592895D02*
X105687544Y-29735752D01*
X105687544Y-29735752D02*
X105735163Y-29830990D01*
X105735163Y-29830990D02*
X105782782Y-29878609D01*
X105782782Y-29878609D02*
X105878020Y-29926228D01*
X105878020Y-29926228D02*
X106258972Y-29926228D01*
X105258972Y-30402419D02*
X105258972Y-29402419D01*
X105258972Y-29402419D02*
X104925639Y-30116704D01*
X104925639Y-30116704D02*
X104592306Y-29402419D01*
X104592306Y-29402419D02*
X104592306Y-30402419D01*
X103354210Y-30402419D02*
X103354210Y-29402419D01*
X103354210Y-29402419D02*
X103020877Y-30116704D01*
X103020877Y-30116704D02*
X102687544Y-29402419D01*
X102687544Y-29402419D02*
X102687544Y-30402419D01*
X102258972Y-29497657D02*
X102211353Y-29450038D01*
X102211353Y-29450038D02*
X102116115Y-29402419D01*
X102116115Y-29402419D02*
X101878020Y-29402419D01*
X101878020Y-29402419D02*
X101782782Y-29450038D01*
X101782782Y-29450038D02*
X101735163Y-29497657D01*
X101735163Y-29497657D02*
X101687544Y-29592895D01*
X101687544Y-29592895D02*
X101687544Y-29688133D01*
X101687544Y-29688133D02*
X101735163Y-29830990D01*
X101735163Y-29830990D02*
X102306591Y-30402419D01*
X102306591Y-30402419D02*
X101687544Y-30402419D01*
M02*
