%TF.GenerationSoftware,KiCad,Pcbnew,9.0.2*%
%TF.CreationDate,2025-12-22T22:41:59+05:30*%
%TF.ProjectId,its_a_wrap,6974735f-615f-4777-9261-702e6b696361,rev?*%
%TF.SameCoordinates,Original*%
%TF.FileFunction,Soldermask,Top*%
%TF.FilePolarity,Negative*%
%FSLAX46Y46*%
G04 Gerber Fmt 4.6, Leading zero omitted, Abs format (unit mm)*
G04 Created by KiCad (PCBNEW 9.0.2) date 2025-12-22 22:41:59*
%MOMM*%
%LPD*%
G01*
G04 APERTURE LIST*
G04 Aperture macros list*
%AMRoundRect*
0 Rectangle with rounded corners*
0 $1 Rounding radius*
0 $2 $3 $4 $5 $6 $7 $8 $9 X,Y pos of 4 corners*
0 Add a 4 corners polygon primitive as box body*
4,1,4,$2,$3,$4,$5,$6,$7,$8,$9,$2,$3,0*
0 Add four circle primitives for the rounded corners*
1,1,$1+$1,$2,$3*
1,1,$1+$1,$4,$5*
1,1,$1+$1,$6,$7*
1,1,$1+$1,$8,$9*
0 Add four rect primitives between the rounded corners*
20,1,$1+$1,$2,$3,$4,$5,0*
20,1,$1+$1,$4,$5,$6,$7,0*
20,1,$1+$1,$6,$7,$8,$9,0*
20,1,$1+$1,$8,$9,$2,$3,0*%
G04 Aperture macros list end*
%ADD10C,3.200000*%
%ADD11RoundRect,0.102000X-0.754000X-0.754000X0.754000X-0.754000X0.754000X0.754000X-0.754000X0.754000X0*%
%ADD12C,1.712000*%
%ADD13RoundRect,0.102000X0.754000X-0.754000X0.754000X0.754000X-0.754000X0.754000X-0.754000X-0.754000X0*%
%ADD14RoundRect,0.102000X0.654000X0.654000X-0.654000X0.654000X-0.654000X-0.654000X0.654000X-0.654000X0*%
%ADD15C,1.512000*%
%ADD16RoundRect,0.102000X0.765000X-0.765000X0.765000X0.765000X-0.765000X0.765000X-0.765000X-0.765000X0*%
%ADD17C,1.734000*%
%ADD18C,1.982000*%
%ADD19RoundRect,0.102000X-0.654000X-0.654000X0.654000X-0.654000X0.654000X0.654000X-0.654000X0.654000X0*%
%ADD20RoundRect,0.102000X0.654000X-0.654000X0.654000X0.654000X-0.654000X0.654000X-0.654000X-0.654000X0*%
%ADD21RoundRect,0.102000X-0.654000X0.654000X-0.654000X-0.654000X0.654000X-0.654000X0.654000X0.654000X0*%
G04 APERTURE END LIST*
D10*
%TO.C,H2*%
X40530000Y-158190000D03*
%TD*%
D11*
%TO.C,J5*%
X192950000Y-34575000D03*
D12*
X190450000Y-34575000D03*
X187950000Y-34575000D03*
X185450000Y-34575000D03*
X182950000Y-34575000D03*
X180450000Y-34575000D03*
%TD*%
D13*
%TO.C,J2*%
X202930000Y-59580000D03*
D12*
X202930000Y-62080000D03*
X202930000Y-64580000D03*
X202930000Y-67080000D03*
X202930000Y-69580000D03*
X202930000Y-72080000D03*
%TD*%
D10*
%TO.C,H4*%
X212680000Y-32870000D03*
%TD*%
D14*
%TO.C,J18*%
X108350000Y-50500000D03*
D15*
X110350000Y-50500000D03*
%TD*%
D10*
%TO.C,A1*%
X81240000Y-118360000D03*
X157440000Y-117090000D03*
X133310000Y-85340000D03*
X157440000Y-71370000D03*
X82510000Y-70100000D03*
D16*
X86066000Y-72640000D03*
D17*
X86066000Y-70100000D03*
X88606000Y-72640000D03*
X88606000Y-70100000D03*
X91146000Y-72640000D03*
X91146000Y-70100000D03*
X93686000Y-72640000D03*
X93686000Y-70100000D03*
X96226000Y-72640000D03*
X96226000Y-70100000D03*
X98766000Y-72640000D03*
X98766000Y-70100000D03*
X101306000Y-72640000D03*
X101306000Y-70100000D03*
X103846000Y-72640000D03*
X103846000Y-70100000D03*
X106386000Y-72640000D03*
X106386000Y-70100000D03*
X108926000Y-72640000D03*
X108926000Y-70100000D03*
D16*
X95210000Y-118360000D03*
D17*
X95210000Y-115820000D03*
X97750000Y-118360000D03*
X97750000Y-115820000D03*
X100290000Y-118360000D03*
X100290000Y-115820000D03*
X102830000Y-118360000D03*
X102830000Y-115820000D03*
X105370000Y-118360000D03*
X105370000Y-115820000D03*
X107910000Y-118360000D03*
X107910000Y-115820000D03*
X110450000Y-118360000D03*
X110450000Y-115820000D03*
X112990000Y-118360000D03*
X112990000Y-115820000D03*
D16*
X118070000Y-118360000D03*
D17*
X118070000Y-115820000D03*
X120610000Y-118360000D03*
X120610000Y-115820000D03*
X123150000Y-118360000D03*
X123150000Y-115820000D03*
X125690000Y-118360000D03*
X125690000Y-115820000D03*
X128230000Y-118360000D03*
X128230000Y-115820000D03*
X130770000Y-118360000D03*
X130770000Y-115820000D03*
X133310000Y-118360000D03*
X133310000Y-115820000D03*
X135850000Y-118360000D03*
X135850000Y-115820000D03*
X138390000Y-118360000D03*
X138390000Y-115820000D03*
X140930000Y-118360000D03*
X140930000Y-115820000D03*
X143470000Y-118360000D03*
X143470000Y-115820000D03*
X146010000Y-118360000D03*
X146010000Y-115820000D03*
X148550000Y-118360000D03*
X148550000Y-115820000D03*
X151090000Y-118360000D03*
X151090000Y-115820000D03*
X153630000Y-118360000D03*
X153630000Y-115820000D03*
D16*
X112990000Y-72640000D03*
D17*
X112990000Y-70100000D03*
X115530000Y-72640000D03*
X115530000Y-70100000D03*
X118070000Y-72640000D03*
X118070000Y-70100000D03*
X120610000Y-72640000D03*
X120610000Y-70100000D03*
X123150000Y-72640000D03*
X123150000Y-70100000D03*
X125690000Y-72640000D03*
X125690000Y-70100000D03*
X128230000Y-72640000D03*
X128230000Y-70100000D03*
X130770000Y-72640000D03*
X130770000Y-70100000D03*
X133310000Y-72640000D03*
X133310000Y-70100000D03*
X135850000Y-72640000D03*
X135850000Y-70100000D03*
X138390000Y-72640000D03*
X138390000Y-70100000D03*
X140930000Y-72640000D03*
X140930000Y-70100000D03*
X143470000Y-72640000D03*
X143470000Y-70100000D03*
X146010000Y-72640000D03*
X146010000Y-70100000D03*
X148550000Y-72640000D03*
X148550000Y-70100000D03*
X151090000Y-72640000D03*
X151090000Y-70100000D03*
X153630000Y-72640000D03*
X153630000Y-70100000D03*
D16*
X85050000Y-125980000D03*
D17*
X85050000Y-123440000D03*
X87590000Y-125980000D03*
X87590000Y-123440000D03*
X90130000Y-125980000D03*
X90130000Y-123440000D03*
X92670000Y-125980000D03*
X92670000Y-123440000D03*
X95210000Y-125980000D03*
X95210000Y-123440000D03*
X97750000Y-125980000D03*
X97750000Y-123440000D03*
X100290000Y-125980000D03*
X100290000Y-123440000D03*
X102830000Y-125980000D03*
X102830000Y-123440000D03*
X105370000Y-125980000D03*
X105370000Y-123440000D03*
X107910000Y-125980000D03*
X107910000Y-123440000D03*
X110450000Y-125980000D03*
X110450000Y-123440000D03*
X112990000Y-125980000D03*
X112990000Y-123440000D03*
X115530000Y-125980000D03*
X115530000Y-123440000D03*
X118070000Y-125980000D03*
X118070000Y-123440000D03*
X120610000Y-125980000D03*
X120610000Y-123440000D03*
X123150000Y-125980000D03*
X123150000Y-123440000D03*
X125690000Y-125980000D03*
X125690000Y-123440000D03*
X128230000Y-125980000D03*
X128230000Y-123440000D03*
X130770000Y-125980000D03*
X130770000Y-123440000D03*
X133310000Y-125980000D03*
X133310000Y-123440000D03*
X135850000Y-125980000D03*
X135850000Y-123440000D03*
X138390000Y-125980000D03*
X138390000Y-123440000D03*
X140930000Y-125980000D03*
X140930000Y-123440000D03*
X143470000Y-125980000D03*
X143470000Y-123440000D03*
X146010000Y-125980000D03*
X146010000Y-123440000D03*
X148550000Y-125980000D03*
X148550000Y-123440000D03*
X151090000Y-125980000D03*
X151090000Y-123440000D03*
X153630000Y-125980000D03*
X153630000Y-123440000D03*
X156170000Y-125980000D03*
X156170000Y-123440000D03*
X158710000Y-125980000D03*
X158710000Y-123440000D03*
X161250000Y-125980000D03*
X161250000Y-123440000D03*
X163790000Y-125980000D03*
X163790000Y-123440000D03*
X166330000Y-125980000D03*
X166330000Y-123440000D03*
X168870000Y-125980000D03*
X168870000Y-123440000D03*
X171410000Y-125980000D03*
X171410000Y-123440000D03*
X173950000Y-125980000D03*
X173950000Y-123440000D03*
D16*
X85070000Y-65020000D03*
D17*
X85070000Y-62480000D03*
X87610000Y-65020000D03*
X87610000Y-62480000D03*
X90150000Y-65020000D03*
X90150000Y-62480000D03*
X92690000Y-65020000D03*
X92690000Y-62480000D03*
X95230000Y-65020000D03*
X95230000Y-62480000D03*
X97770000Y-65020000D03*
X97770000Y-62480000D03*
X100310000Y-65020000D03*
X100310000Y-62480000D03*
X102850000Y-65020000D03*
X102850000Y-62480000D03*
X105390000Y-65020000D03*
X105390000Y-62480000D03*
X107930000Y-65020000D03*
X107930000Y-62480000D03*
X110470000Y-65020000D03*
X110470000Y-62480000D03*
X113010000Y-65020000D03*
X113010000Y-62480000D03*
X115550000Y-65020000D03*
X115550000Y-62480000D03*
X118090000Y-65020000D03*
X118090000Y-62480000D03*
X120630000Y-65020000D03*
X120630000Y-62480000D03*
X123170000Y-65020000D03*
X123170000Y-62480000D03*
X125710000Y-65020000D03*
X125710000Y-62480000D03*
X128250000Y-65020000D03*
X128250000Y-62480000D03*
X130790000Y-65020000D03*
X130790000Y-62480000D03*
X133330000Y-65020000D03*
X133330000Y-62480000D03*
X135870000Y-65020000D03*
X135870000Y-62480000D03*
X138410000Y-65020000D03*
X138410000Y-62480000D03*
X140950000Y-65020000D03*
X140950000Y-62480000D03*
X143490000Y-65020000D03*
X143490000Y-62480000D03*
X146030000Y-65020000D03*
X146030000Y-62480000D03*
X148570000Y-65020000D03*
X148570000Y-62480000D03*
X151110000Y-65020000D03*
X151110000Y-62480000D03*
X153650000Y-65020000D03*
X153650000Y-62480000D03*
X156190000Y-65020000D03*
X156190000Y-62480000D03*
X158730000Y-65020000D03*
X158730000Y-62480000D03*
X161270000Y-65020000D03*
X161270000Y-62480000D03*
X163810000Y-65020000D03*
X163810000Y-62480000D03*
X166350000Y-65020000D03*
X166350000Y-62480000D03*
X168890000Y-65020000D03*
X168890000Y-62480000D03*
X171430000Y-65020000D03*
X171430000Y-62480000D03*
X173970000Y-65020000D03*
X173970000Y-62480000D03*
%TD*%
D18*
%TO.C,U5*%
X119820000Y-42190000D03*
X122360000Y-42190000D03*
X129980000Y-42190000D03*
X132520000Y-42190000D03*
X119820000Y-52350000D03*
X122360000Y-52350000D03*
X129980000Y-52350000D03*
X132520000Y-52350000D03*
X127440000Y-42190000D03*
X127440000Y-52350000D03*
X124900000Y-42190000D03*
X124900000Y-52350000D03*
%TD*%
D11*
%TO.C,J10*%
X132437500Y-34675000D03*
D12*
X129937500Y-34675000D03*
X127437500Y-34675000D03*
X124937500Y-34675000D03*
X122437500Y-34675000D03*
X119937500Y-34675000D03*
%TD*%
D11*
%TO.C,J13*%
X75137500Y-153725000D03*
D12*
X72637500Y-153725000D03*
X70137500Y-153725000D03*
X67637500Y-153725000D03*
X65137500Y-153725000D03*
X62637500Y-153725000D03*
%TD*%
D19*
%TO.C,J1*%
X102050000Y-51450000D03*
D15*
X100050000Y-51450000D03*
%TD*%
D13*
%TO.C,J3*%
X205795000Y-104550000D03*
D12*
X205795000Y-107050000D03*
X205795000Y-109550000D03*
X205795000Y-112050000D03*
X205795000Y-114550000D03*
X205795000Y-117050000D03*
%TD*%
D18*
%TO.C,U3*%
X120063500Y-144342500D03*
X117523500Y-144342500D03*
X109903500Y-144342500D03*
X107363500Y-144342500D03*
X120063500Y-134182500D03*
X117523500Y-134182500D03*
X109903500Y-134182500D03*
X107363500Y-134182500D03*
X112443500Y-144342500D03*
X112443500Y-134182500D03*
X114983500Y-144342500D03*
X114983500Y-134182500D03*
%TD*%
D13*
%TO.C,J17*%
X205650000Y-124180000D03*
D12*
X205650000Y-126680000D03*
X205650000Y-129180000D03*
X205650000Y-131680000D03*
X205650000Y-134180000D03*
X205650000Y-136680000D03*
%TD*%
D11*
%TO.C,J14*%
X95700000Y-153725000D03*
D12*
X93200000Y-153725000D03*
X90700000Y-153725000D03*
X88200000Y-153725000D03*
X85700000Y-153725000D03*
X83200000Y-153725000D03*
%TD*%
D10*
%TO.C,H1*%
X40530000Y-32870000D03*
%TD*%
D20*
%TO.C,J21*%
X191970000Y-90260000D03*
D15*
X191970000Y-92260000D03*
%TD*%
D11*
%TO.C,J8*%
X90950000Y-34200000D03*
D12*
X88450000Y-34200000D03*
X85950000Y-34200000D03*
X83450000Y-34200000D03*
X80950000Y-34200000D03*
X78450000Y-34200000D03*
%TD*%
D18*
%TO.C,U1*%
X208090000Y-82846500D03*
X208090000Y-85386500D03*
X208090000Y-93006500D03*
X208090000Y-95546500D03*
X197930000Y-82846500D03*
X197930000Y-85386500D03*
X197930000Y-93006500D03*
X197930000Y-95546500D03*
X208090000Y-90466500D03*
X197930000Y-90466500D03*
X208090000Y-87926500D03*
X197930000Y-87926500D03*
%TD*%
D11*
%TO.C,J6*%
X116050000Y-153700000D03*
D12*
X113550000Y-153700000D03*
X111050000Y-153700000D03*
X108550000Y-153700000D03*
X106050000Y-153700000D03*
X103550000Y-153700000D03*
%TD*%
D14*
%TO.C,J15*%
X83660000Y-141360000D03*
D15*
X85660000Y-141360000D03*
%TD*%
D18*
%TO.C,U4*%
X79536500Y-41757500D03*
X82076500Y-41757500D03*
X89696500Y-41757500D03*
X92236500Y-41757500D03*
X79536500Y-51917500D03*
X82076500Y-51917500D03*
X89696500Y-51917500D03*
X92236500Y-51917500D03*
X87156500Y-41757500D03*
X87156500Y-51917500D03*
X84616500Y-41757500D03*
X84616500Y-51917500D03*
%TD*%
D11*
%TO.C,J16*%
X175150000Y-154100000D03*
D12*
X172650000Y-154100000D03*
X170150000Y-154100000D03*
X167650000Y-154100000D03*
X165150000Y-154100000D03*
X162650000Y-154100000D03*
%TD*%
D18*
%TO.C,U2*%
X160250000Y-145290000D03*
X157710000Y-145290000D03*
X150090000Y-145290000D03*
X147550000Y-145290000D03*
X160250000Y-135130000D03*
X157710000Y-135130000D03*
X150090000Y-135130000D03*
X147550000Y-135130000D03*
X152630000Y-145290000D03*
X152630000Y-135130000D03*
X155170000Y-145290000D03*
X155170000Y-135130000D03*
%TD*%
D11*
%TO.C,J9*%
X111750000Y-34600000D03*
D12*
X109250000Y-34600000D03*
X106750000Y-34600000D03*
X104250000Y-34600000D03*
X101750000Y-34600000D03*
X99250000Y-34600000D03*
%TD*%
D11*
%TO.C,J11*%
X153350000Y-34850000D03*
D12*
X150850000Y-34850000D03*
X148350000Y-34850000D03*
X145850000Y-34850000D03*
X143350000Y-34850000D03*
X140850000Y-34850000D03*
%TD*%
D21*
%TO.C,J19*%
X49200000Y-90770000D03*
D15*
X49200000Y-88770000D03*
%TD*%
D20*
%TO.C,J20*%
X42650000Y-111700000D03*
D15*
X42650000Y-113700000D03*
%TD*%
D11*
%TO.C,J7*%
X135250000Y-153800000D03*
D12*
X132750000Y-153800000D03*
X130250000Y-153800000D03*
X127750000Y-153800000D03*
X125250000Y-153800000D03*
X122750000Y-153800000D03*
%TD*%
D18*
%TO.C,U7*%
X75370000Y-143970000D03*
X72830000Y-143970000D03*
X65210000Y-143970000D03*
X62670000Y-143970000D03*
X75370000Y-133810000D03*
X72830000Y-133810000D03*
X65210000Y-133810000D03*
X62670000Y-133810000D03*
X67750000Y-143970000D03*
X67750000Y-133810000D03*
X70290000Y-143970000D03*
X70290000Y-133810000D03*
%TD*%
%TO.C,U6*%
X158896500Y-42630000D03*
X161436500Y-42630000D03*
X169056500Y-42630000D03*
X171596500Y-42630000D03*
X158896500Y-52790000D03*
X161436500Y-52790000D03*
X169056500Y-52790000D03*
X171596500Y-52790000D03*
X166516500Y-42630000D03*
X166516500Y-52790000D03*
X163976500Y-42630000D03*
X163976500Y-52790000D03*
%TD*%
D11*
%TO.C,J4*%
X155200000Y-153825000D03*
D12*
X152700000Y-153825000D03*
X150200000Y-153825000D03*
X147700000Y-153825000D03*
X145200000Y-153825000D03*
X142700000Y-153825000D03*
%TD*%
D10*
%TO.C,H3*%
X212680000Y-158190000D03*
%TD*%
D11*
%TO.C,J12*%
X172870000Y-34860000D03*
D12*
X170370000Y-34860000D03*
X167870000Y-34860000D03*
X165370000Y-34860000D03*
X162870000Y-34860000D03*
X160370000Y-34860000D03*
%TD*%
M02*
